<?xml version="1.0" standalone="no"?>
<!DOCTYPE svg PUBLIC "-//W3C//DTD SVG 1.1//EN" "http://www.w3.org/Graphics/SVG/1.1/DTD/svg11.dtd" >
<!--
2013-9-30: Created.
-->
<svg>
<metadata>
Created by iconfont
</metadata>
<defs>

<font id="mgtx" horiz-adv-x="1024" >
  <font-face
    font-family="mgtx"
    font-weight="500"
    font-stretch="normal"
    units-per-em="1024"
    ascent="896"
    descent="-128"
  />
    <missing-glyph />
    
    <glyph glyph-name="auto" unicode="&#59115;" d="M689.536 704c26.816 0 50.794667-16.64 60.202667-41.706667l78.08-207.978666 67.754666 39.125333 27.562667-47.786667-50.709333-29.269333a64.213333 64.213333 0 0 0 27.157333-52.522667v-202.368a64.298667 64.298667 0 0 0-64.298667-64.298666h-27.648V21.333333h-55.146666v75.861334H255.957333V21.333333H200.853333v75.861334H173.184a64.298667 64.298667 0 0 0-64.32 64.298666v202.368a64.213333 64.213333 0 0 0 27.2 52.522667L85.333333 445.653333l27.584 47.786667 67.733334-39.104 78.08 207.957333A64.298667 64.298667 0 0 0 318.933333 704h370.602667z m145.728-342.954667H173.184v-199.552h662.101333v199.552z m-556.288-50.090666a41.386667 41.386667 0 1 0 0-82.752 41.386667 41.386667 0 0 0 0 82.752z m455.125333 0a41.386667 41.386667 0 1 0 0-82.752 41.386667 41.386667 0 0 0 0 82.752z m-44.565333 328.746666H318.933333l-79.402666-211.52h529.386666l-79.36 211.52z m-79.573333-46.037333v-62.058667h-206.869334v62.08h206.869334z"  horiz-adv-x="1024" />

    
    <glyph glyph-name="code" unicode="&#59122;" d="M541.141333 627.136l61.717334-16.938667-132.394667-482.474666-61.717333 16.938666 132.394666 482.474667zM329.002667 597.333333l44.885333-45.610666-175.36-172.586667 175.04-167.573333-44.266667-46.229334L106.666667 378.496 329.002667 597.333333z m355.882666 0l222.336-218.837333L684.586667 165.333333l-44.266667 46.229334 175.018667 167.573333L640 551.722667 684.885333 597.333333z"  horiz-adv-x="1024" />

    
    <glyph glyph-name="copy1" unicode="&#59123;" d="M576 512a64 64 0 0 0 64-64v-341.333333a64 64 0 0 0-64-64H234.666667a64 64 0 0 0-64 64V448a64 64 0 0 0 64 64h341.333333z m0-64H234.666667v-341.333333h341.333333V448z m-64-192v-64H298.666667v64h213.333333zM789.333333 725.333333a64 64 0 0 0 64-64v-341.333333a64 64 0 0 0-64-64h-106.666666v64h106.666666V661.333333H448v-106.666666h-64v106.666666a64 64 0 0 0 64 64h341.333333zM512 362.666667v-64H298.666667v64h213.333333z"  horiz-adv-x="1024" />

    
    <glyph glyph-name="earth" unicode="&#59214;" d="M512 725.333333c200.362667 0 362.666667-162.304 362.666667-362.666666s-162.304-362.666667-362.666667-362.666667S149.333333 162.304 149.333333 362.666667 311.637333 725.333333 512 725.333333z m0-64c-143.893333 0-263.914667-101.610667-292.309333-237.013333h34.730666c8.597333-0.128 16.554667-0.853333 30.144-2.624l30.442667-4.074667c7.786667-0.96 13.610667-1.493333 18.602667-1.642666l4.757333-0.064c3.712 0.042667 6.485333 0.341333 8.213333 0.746666l-0.277333-0.021333 1.536 1.429333c29.248 25.706667 82.666667 24.533333 120.042667 4.032l4.224-2.453333c13.909333-8.490667 21.994667-18.496 35.648-39.552l4.309333-6.634667c10.133333-15.36 14.293333-19.370667 15.552-19.370666 51.605333 0 101.717333-36.501333 101.717333-84.928 0-23.978667-15.850667-37.930667-37.098666-43.648-6.016-1.621333-11.370667-2.56-19.008-3.285334l-8.533334-0.682666-21.76-1.386667-6.186666-0.576-4.928-0.64c-2.154667-63.936-23.466667-115.285333-76.373334-115.285333-12.288 0-21.333333 1.216-35.306666 4.053333l-10.602667 2.005333c-10.602667 1.642667-17.941333 0.810667-31.36-4.096l-6.549333-2.24c-1.728-0.554667-3.477333-1.066667-5.226667-1.578666A297.322667 297.322667 0 0 1 512 64c165.034667 0 298.666667 133.632 298.666667 298.666667 0 19.242667-1.813333 38.037333-5.290667 56.277333-3.477333-1.450667-7.04-2.581333-10.666667-3.413333-1.024-3.754667-2.197333-8.768-3.626666-15.509334l-3.584-16.96-3.072-13.333333c-11.904-47.701333-28.650667-73.045333-68.458667-73.045333-47.957333 0-68.714667 33.024-71.04 79.466666a205.738667 205.738667 0 0 0-0.234667 8.704l0.085334 9.386667 0.405333 11.285333c-3.946667 2.197333-12.714667 6.997333-19.2 10.688l-5.44 3.2c-34.986667 21.653333-55.210667 50.944-55.210667 95.658667 0 46.890667 24.832 86.4 71.744 118.890667A297.514667 297.514667 0 0 1 512 661.333333z m-73.194667-296.32c-16.085333 9.813333-43.434667 10.453333-48.576 5.12-17.6-18.282667-35.754667-21.248-74.517333-17.045333l-11.093333 1.322667-31.317334 4.202666a215.466667 215.466667 0 0 1-16.512 1.6l-4.970666 0.106667-38.464 0.021333 0.042666-4.352a297.493333 297.493333 0 0 1 73.813334-190.037333c25.514667-7.936 48.149333-7.872 68.949333-0.234667 26.325333 9.642667 45.354667 10.709333 68.885333 6.272l11.861334-2.346666c7.637333-1.450667 12.437333-1.984 18.56-1.984 2.730667 0 12.522667 27.264 12.522666 62.4 0 24.234667 15.104 40.533333 36.842667 48 11.456 3.925333 22.634667 5.354667 41.92 6.506666l3.2 0.213334c-6.378667 3.114667-14.186667 5.333333-22.336 5.333333-32.170667 0-47.68 15.168-71.381333 51.797333l-5.994667 9.130667c-5.845333 8.661333-9.216 12.586667-11.434667 13.952z m274.922667-4.096c0.042667-0.298667 0.213333-0.362667 0.448-0.362666l0.810667 0.170666-0.853334 0.085334-0.405333 0.106666z m-15.573333 235.392l-0.917334-0.490666c-46.72-24.896-67.904-52.010667-67.904-80.746667 0-19.861333 7.189333-30.272 24.896-41.216l1.066667-0.64 25.152-14.165333c18.048-11.029333 29.013333-23.466667 29.013333-44.138667l-0.042666-2.496-0.704-22.4v-5.610667l0.149333-5.077333c0.661333-13.397333 1.536-17.28 4.48-18.304l0.384-0.106667 0.042667 0.213334a3.626667 3.626667 0 0 0 0.213333 0.576l0.426667 0.853333 1.152 2.197333c2.986667 6.272 5.824 15.68 8.853333 29.397334l5.12 24.106666c2.773333 12.608 5.056 20.736 8.277333 28.437334 7.68 18.197333 20.181333 31.061333 41.258667 31.061333 1.386667 0 3.434667 0.768 6.72 3.221333a35.2 35.2 0 0 1 0.384 0.298667 299.178667 299.178667 0 0 1-88.042667 115.029333z m-351.36-179.626666l-0.213334-0.021334-0.277333-0.021333-1.258667-1.237333 1.344 1.066666 0.405334 0.213334z"  horiz-adv-x="1024" />

    
    <glyph glyph-name="packing-labeling" unicode="&#59228;" d="M729.92 325.632l154.88-154.88-154.88-154.88-46.464 46.464 75.989333 75.989333-203.392 0.021334v65.706666h202.517334l-75.093334 75.114667 46.442667 46.464zM733.482667 725.333333a64 64 0 0 0 57.237333-35.370666l55.850667-111.68A64 64 0 0 0 853.333333 549.653333v-181.333333h-64V512H234.666667v-405.333333h277.333333v-64H234.666667a64 64 0 0 0-64 64V544.448a64 64 0 0 0 6.378666 27.84l56.469334 116.906667A64 64 0 0 0 291.136 725.333333h442.346667zM469.333333 448v-64h-170.666666v64h170.666666z m-178.197333 213.333333l-41.237333-85.333333h526.272l-42.688 85.333333H291.136z"  horiz-adv-x="1024" />

    
    <glyph glyph-name="Non-staplefood" unicode="&#59229;" d="M512 810.666667a106.666667 106.666667 0 0 0 106.56-102.037334l0.106667-4.586666c100.224-41.770667 170.666667-140.672 170.666666-256.042667a279.466667 279.466667 0 0 0-3.264-42.688L819.626667 405.333333a64 64 0 0 0 63.018666-75.2l-49.28-277.333333A64 64 0 0 0 770.389333 0H253.632a64 64 0 0 0-63.018667 52.8l-49.258666 277.333333A64 64 0 0 0 204.373333 405.333333l33.557334-0.021333A279.466667 279.466667 0 0 0 234.666667 448c0 115.370667 70.442667 214.293333 170.666666 256.085333A106.645333 106.645333 0 0 0 512 810.666667z m307.626667-469.333334H204.373333l49.28-277.333333 84.288 0.021333L313.6 234.666667h64.618667l24.362666-170.645334h72.064V234.666667h64v-170.645334h72.064L635.093333 234.666667h64.64l-24.384-170.645334 95.018667-0.021333 49.28 277.333333zM423.829333 643.946667l0.874667-1.28A213.290667 213.290667 0 0 1 298.666667 448c0-14.613333 1.472-28.885333 4.266666-42.688h418.133334a213.376 213.376 0 0 1-121.770667 237.397333l-0.704-1.002666A106.517333 106.517333 0 0 0 512 597.333333a106.56 106.56 0 0 0-88.170667 46.613334z m-2.624 4.032l0.554667-0.896a106.645333 106.645333 0 0 0-0.554667 0.896z m-2.581333 4.416l0.426667-0.725334a106.56 106.56 0 0 0-0.426667 0.725334z m186.602667-0.256l-0.746667-1.322667 0.746667 1.322667z m5.546666 11.52l-1.258666-2.944 1.258666 2.944zM512 746.666667a42.666667 42.666667 0 1 1 0-85.333334 42.666667 42.666667 0 0 1 0 85.333334z m-100.245333-79.232l0.469333-1.237334a105.749333 105.749333 0 0 0-0.448 1.237334z m200.597333 0.298666l-0.896-2.346666 0.896 2.346666z m1.429333 4.266667l-0.554666-1.706667 0.554666 1.706667z m-203.52-0.213333l0.192-0.490667a105.728 105.728 0 0 0-0.170666 0.512z m204.906667 5.013333l-0.213333-0.789333 0.213333 0.789333z m2.432 11.989333l-0.362667-2.261333a107.733333 107.733333 0 0 1 0.362667 2.261333z m0.576 4.885334l-0.213333-2.005334 0.213333 2.005334z m-212.330667-0.213334l0.085334-0.682666a107.477333 107.477333 0 0 0-0.064 0.682666z m-0.384 5.482667L405.333333 704.064c0-2.133333 0.064-4.266667 0.192-6.4l-0.064 1.28z"  horiz-adv-x="1024" />

    
    <glyph glyph-name="textile-products" unicode="&#59241;" d="M729.706667 746.666667a142.72 142.72 0 0 0 142.72-142.72V204.373333a142.72 142.72 0 0 0-137.706667-142.634666l-5.013333-0.085334c-9.685333 0-19.136 0.96-28.288 2.794667L213.333333 61.653333a64 64 0 0 0-64 64V530.432a64 64 0 0 0 64 64l373.653334 2.176v7.338667A142.72 142.72 0 0 0 729.706667 746.666667z m-142.72-216.192L213.333333 530.432V125.653333h397.333334a142.058667 142.058667 0 0 0-23.68 78.72V530.474667z m142.72-247.402667a78.72 78.72 0 0 1-20.266667-154.794667L710.4 128h4.266667v-0.96l2.688-0.469333a78.72 78.72 0 1 1 12.373333 156.458666z m0 399.594667a78.72 78.72 0 0 1-78.72-78.72v-280.533334a142.058667 142.058667 0 0 0 78.72 23.658667c29.098667 0 56.170667-8.725333 78.72-23.68V603.946667a78.72 78.72 0 0 1-78.72 78.72z"  horiz-adv-x="1024" />

    
    <glyph glyph-name="tradealert" unicode="&#59242;" d="M746.666667 746.666667a64 64 0 0 0 64-64v-181.333334a64 64 0 0 0 64-64v-49.664l-64-58.496v87.573334l-239.104-197.376a95.978667 95.978667 0 0 0-117.632-3.050667l-3.84 2.986667-236.757334 192V96h372.330667l62.805333-64H213.333333a64 64 0 0 0-64 64v341.333333a64 64 0 0 0 64 64V682.666667a64 64 0 0 0 64 64h469.333334z m126.869333-467.861334l44.928-45.610666-174.08-171.456-105.536 104.106666 44.970667 45.568 60.586666-59.818666 129.130667 127.210666zM746.666667 682.666667H277.333333v-240.853334l213.184-172.906666a32 32 0 0 1 37.845334-1.984l2.56 1.92L746.666667 446.890667V682.666667z m-149.333334-192v-64H362.666667v64h234.666666z m64 128v-64H362.666667v64h298.666666z"  horiz-adv-x="1024" />

    
    <glyph glyph-name="trust" unicode="&#59243;" d="M546.581333 2.453333a64 64 0 0 0-90.496 0L109.12 349.44a64 64 0 0 0 0 90.496L334.570667 665.386667a64 64 0 0 0 90.496 0l76.245333-76.266667 76.288 76.266667a64 64 0 0 0 90.496 0L893.546667 439.893333a64 64 0 0 0 0-90.496L546.56 2.453333z m-166.762666 617.642667L154.389333 394.666667 501.333333 47.722667l21.034667 21.034666-76.245333 76.266667 45.248 45.248 76.266666-76.266667 23.786667 23.786667-76.266667 76.266667 45.269334 45.269333 76.245333-76.266667 27.648 27.648-76.245333 76.266667 45.248 45.248 76.266666-76.266667 17.173334 17.194667-100.565334 100.565333-3.349333-3.349333a120.298667 120.298667 0 0 0-170.112 0l-39.808 39.808a64 64 0 0 0 0 90.496l43.136 43.178667-76.245333 76.245333z m243.029333 0l-164.693333-164.672 39.829333-39.808a56.277333 56.277333 0 0 1 79.573333-0.042667l3.370667 3.413334 45.226667 45.290666 8.789333 8.789334 145.877333-145.856 67.456 67.456-225.429333 225.429333z"  horiz-adv-x="1024" />

    
    <glyph glyph-name="contacts" unicode="&#59248;" d="M746.666667 725.333333a64 64 0 0 0 64-64v-554.666666a64 64 0 0 0-64-64H320a64 64 0 0 0-64 64v42.666666h-42.666667v64h149.333334v-64h-42.666667v-42.666666h426.666667V661.333333H320v-42.666666h42.666667v-64h-149.333334v64h42.666667v42.666666a64 64 0 0 0 64 64h426.666667z m-56.597334-106.666666v-469.333334h-64V618.666667h64zM320 512v-256h-64V512h64z"  horiz-adv-x="1024" />

    
    <glyph glyph-name="aviation" unicode="&#59249;" d="M857.38719 394.877127l32.092376-55.372292-462.704913-268.054249-32.092376 55.372292 462.704913 268.054249zM214.687739 623.371897a74.666667 74.666667 0 0 0 56.108377 10.59344l349.700121-72.962378 25.42413 16.550783a256 256 0 0 0 200.607216 34.234109l7.340895-1.920136 33.304979-9.173915a62.784 62.784 0 0 0 17.808365-112.93566l-3.142878-1.93771-565.500618-326.294865a64 64 0 0 0-62.81291-0.644848l-3.608286 2.153736-116.500307 74.381783a51.178667 51.178667 0 0 0-5.80794 81.95298l2.726317 2.189881 40.021527 29.880682a64 64 0 0 0 38.67169 12.720002l4.636771-0.180458L306.447943 356.235894l63.58375 41.464382-183.853702 86.16662a66.282667 66.282667 0 0 0-33.502513 84.438721l1.602898 3.709032a66.282667 66.282667 0 0 0 23.743377 27.355265zM228.654476 298.167466l-25.165422-18.790878 100.878414-64.433205 562.921897 324.830673-30.46755 8.398012a192 192 0 0 1-155.943322-24.212909L323.148023 290.745174l-94.493547 7.422292zM249.719766 569.81998l-36.695129-23.994174a2.282667 2.282667 0 0 1 0.277033-3.978501l219.777991-102.991981 111.431983 72.636812-286.786137 59.821493a10.666667 10.666667 0 0 1-6.543342-0.698599L249.719766 569.81998z"  horiz-adv-x="1024" />

    
    <glyph glyph-name="huititle" unicode="&#59069;" d="M596.693333 847.616l277.333334-158.485333A170.666667 170.666667 0 0 0 960 540.949333v-313.898666a170.666667 170.666667 0 0 0-85.973333-148.181334l-277.333334-158.485333a170.666667 170.666667 0 0 0-169.386666 0l-277.333334 158.485333A170.666667 170.666667 0 0 0 64 227.050667V540.949333a170.666667 170.666667 0 0 0 85.973333 148.181334l277.333334 158.485333a170.666667 170.666667 0 0 0 169.386666 0zM463.786667 794.602667l-4.736-2.56-277.333334-158.464a106.666667 106.666667 0 0 1-53.632-87.637334L128 540.949333v-313.898666a106.666667 106.666667 0 0 1 49.493333-90.048l4.266667-2.56 277.333333-158.506667a106.666667 106.666667 0 0 1 101.098667-2.538667l4.736 2.56 277.333333 158.464a106.666667 106.666667 0 0 1 53.632 87.637334l0.106667 4.992V540.949333a106.666667 106.666667 0 0 1-49.493333 90.048l-4.266667 2.56-277.333333 158.506667a106.666667 106.666667 0 0 1-101.098667 2.538667z m257.194666-229.077334a42.666667 42.666667 0 0 0 0-26.24l-75.562666-233.770666a85.333333 85.333333 0 0 0-54.954667-54.954667l-233.770667-75.562667a42.666667 42.666667 0 0 0-53.717333 53.717334l75.562667 233.770666a85.333333 85.333333 0 0 0 54.954666 54.954667l233.770667 75.562667a42.666667 42.666667 0 0 0 53.717333-27.477334z m-73.706666-46.229333l-194.112-62.741333a21.333333 21.333333 0 0 1-12.8-11.370667l-0.938667-2.368-62.72-194.090667 194.090667 62.72a21.333333 21.333333 0 0 1 12.8 11.370667l0.938666 2.368 62.741334 194.112zM512 426.666667a42.666667 42.666667 0 1 0 0-85.333334 42.666667 42.666667 0 0 0 0 85.333334z"  horiz-adv-x="1024" />

    
    <glyph glyph-name="bookmark" unicode="&#59488;" d="M725.333333 810.666667H298.666667C226.133333 810.666667 170.666667 755.2 170.666667 682.666667v-682.666667c0-17.066667 8.533333-29.866667 21.333333-38.4s29.866667-4.266667 42.666667 4.266667l273.066666 196.266666 273.066667-196.266666c8.533333-4.266667 17.066667-8.533333 25.6-8.533334s12.8 0 21.333333 4.266667c12.8 8.533333 21.333333 21.333333 21.333334 38.4V682.666667c4.266667 72.533333-51.2 128-123.733334 128z m42.666667-729.6l-230.4 166.4c-8.533333 4.266667-17.066667 8.533333-25.6 8.533333s-17.066667-4.266667-25.6-8.533333L256 81.066667V682.666667c0 25.6 17.066667 42.666667 42.666667 42.666666h426.666666c25.6 0 42.666667-17.066667 42.666667-42.666666v-601.6z"  horiz-adv-x="1024" />

    
    <glyph glyph-name="bar-chart2" unicode="&#59489;" d="M768 512c-25.6 0-42.666667-17.066667-42.666667-42.666667v-426.666666c0-25.6 17.066667-42.666667 42.666667-42.666667s42.666667 17.066667 42.666667 42.666667V469.333333c0 25.6-17.066667 42.666667-42.666667 42.666667zM512 768c-25.6 0-42.666667-17.066667-42.666667-42.666667v-682.666666c0-25.6 17.066667-42.666667 42.666667-42.666667s42.666667 17.066667 42.666667 42.666667V725.333333c0 25.6-17.066667 42.666667-42.666667 42.666667zM256 341.333333c-25.6 0-42.666667-17.066667-42.666667-42.666666v-256c0-25.6 17.066667-42.666667 42.666667-42.666667s42.666667 17.066667 42.666667 42.666667v256c0 25.6-17.066667 42.666667-42.666667 42.666666z"  horiz-adv-x="1024" />

    
    <glyph glyph-name="book-open" unicode="&#59492;" d="M938.666667 810.666667h-256c-68.266667 0-132.266667-34.133333-170.666667-85.333334-38.4 51.2-102.4 85.333333-170.666667 85.333334H85.333333c-25.6 0-42.666667-17.066667-42.666666-42.666667v-640c0-25.6 17.066667-42.666667 42.666666-42.666667h298.666667c46.933333 0 85.333333-38.4 85.333333-85.333333 0-25.6 17.066667-42.666667 42.666667-42.666667s42.666667 17.066667 42.666667 42.666667c0 46.933333 38.4 85.333333 85.333333 85.333333h298.666667c25.6 0 42.666667 17.066667 42.666666 42.666667V768c0 25.6-17.066667 42.666667-42.666666 42.666667zM469.333333 149.333333c-25.6 12.8-55.466667 21.333333-85.333333 21.333334H128V725.333333h213.333333c72.533333 0 128-55.466667 128-128v-448z m426.666667 21.333334h-256c-29.866667 0-59.733333-8.533333-85.333333-21.333334V597.333333c0 72.533333 55.466667 128 128 128h213.333333v-554.666666z"  horiz-adv-x="1024" />

    
    <glyph glyph-name="inbox" unicode="&#59497;" d="M977.066667 401.066667l-149.333334 294.4c-21.333333 42.666667-64 72.533333-115.2 72.533333H307.2c-46.933333 0-89.6-25.6-110.933333-72.533333l-145.066667-294.4c-8.533333-4.266667-8.533333-8.533333-8.533333-17.066667v-256c0-72.533333 55.466667-128 128-128h682.666666c72.533333 0 128 55.466667 128 128v256c0 8.533333 0 12.8-4.266666 17.066667z m-708.266667 256c8.533333 17.066667 25.6 25.6 38.4 25.6h405.333333c17.066667 0 29.866667-8.533333 38.4-25.6l115.2-230.4H682.666667c-12.8 0-25.6-8.533333-34.133334-17.066667L576 298.666667h-123.733333l-72.533334 110.933333c-12.8 8.533333-25.6 17.066667-38.4 17.066667H153.6l115.2 230.4zM853.333333 85.333333H170.666667c-25.6 0-42.666667 17.066667-42.666667 42.666667v213.333333h192l72.533333-110.933333c8.533333-8.533333 21.333333-17.066667 34.133334-17.066667h170.666666c12.8 0 25.6 8.533333 34.133334 17.066667l72.533333 110.933333H896v-213.333333c0-25.6-17.066667-42.666667-42.666667-42.666667z"  horiz-adv-x="1024" />

    
    <glyph glyph-name="heart" unicode="&#59500;" d="M917.333333 729.6C866.133333 780.8 797.866667 810.666667 725.333333 810.666667c-72.533333 0-145.066667-29.866667-196.266666-81.066667l-17.066667-17.066667-17.066667 17.066667A273.92 273.92 0 0 1 298.666667 810.666667c-72.533333 0-140.8-29.866667-192-81.066667s-85.333333-123.733333-85.333334-196.266667 29.866667-145.066667 81.066667-196.266666l375.466667-375.466667c8.533333-8.533333 17.066667-12.8 29.866666-12.8s21.333333 4.266667 29.866667 12.8l375.466667 375.466667c115.2 106.666667 115.2 285.866667 4.266666 392.533333z m-59.733333-332.8L512 51.2l-345.6 345.6c-76.8 76.8-76.8 196.266667 0 273.066667C200.533333 708.266667 251.733333 725.333333 298.666667 725.333333c51.2 0 98.133333-17.066667 136.533333-55.466666l46.933333-46.933334c17.066667-17.066667 42.666667-17.066667 59.733334 0l42.666666 46.933334c38.4 34.133333 85.333333 55.466667 140.8 55.466666 51.2 0 98.133333-21.333333 136.533334-55.466666 34.133333-38.4 55.466667-85.333333 55.466666-136.533334s-21.333333-98.133333-59.733333-136.533333z"  horiz-adv-x="1024" />

    
    <glyph glyph-name="icon_mergemodel" unicode="&#58945;" d="M513.89-54.72000000000003c-5.5 0-11 1.4-15.99 4.2L143.84 153c-9.85 5.73-15.99 16.17-15.99 27.64V587.4200000000001c0 11.33 6.14 21.91 15.99 27.64L497.9 818.5699999999999c9.85 5.73 22.14 5.73 31.99 0l354.06-203.52c9.85-5.73 15.99-16.17 15.99-27.64V180.5c0-11.33-6.14-21.91-15.99-27.64L529.89-50.51999999999998c-4.99-2.8-10.49-4.2-16-4.2zM191.83 198.85000000000002L513.89 13.799999999999955l322.07 185.05V569.0799999999999L513.89 754.13 191.83 569.0799999999999v-370.23z m322.06 153.34c-5.37 0-10.88 1.4-15.99 4.33L244.29 502.09c-15.35 8.79-20.6 28.27-11.77 43.56 8.83 15.28 28.41 20.5 43.76 11.72l253.61-145.7c15.35-8.79 20.6-28.27 11.77-43.56-6.01-10.32-16.76-15.92-27.77-15.92z m0-291.52c-17.66 0-31.99 14.26-31.99 31.84V365.55999999999995L244.55 502.09s-0.13 0-0.13 0.13l-100.45 57.69c-15.35 8.79-20.6 28.27-11.77 43.56s28.41 20.5 43.76 11.72l354.06-203.52c9.85-5.73 15.99-16.17 15.99-27.64v-291.39c-0.13-17.71-14.46-31.97-32.12-31.97z m0-115.39c-17.66 0-31.99 14.26-31.99 31.84V384.03c0 17.58 14.33 31.84 31.99 31.84s31.99-14.26 31.99-31.84v-406.91c0-17.7-14.33-31.84-31.99-31.84z m0 406.91c-11 0-21.75 5.73-27.77 15.92-8.83 15.28-3.58 34.64 11.77 43.56l354.06 203.52c15.35 8.79 34.8 3.57 43.76-11.72 8.83-15.28 3.58-34.64-11.77-43.56L529.89 356.39c-4.99-2.93-10.49-4.2-16-4.2z"  horiz-adv-x="1024" />

    
    <glyph glyph-name="wenda" unicode="&#58904;" d="M512 830c245.767 0 445-199.233 445-445S757.767-60 512-60c-66.834 0-131.575 14.772-190.506 42.731-2.33 1.106-5.43 2.633-9.302 4.582a16 16 0 0 1-12.382 0.844l-89.242-30.593c-32.335-11.085-67.534 6.142-78.62 38.477a61.893 61.893 0 0 0-2.722 28.823l14.663 102.655a16 16 0 0 1-2.54 11.157 384.089 384.089 0 0 0-2.42 3.657C92.324 213.828 67 297.539 67 385 67 630.767 266.233 830 512 830z m0-64c-210.42 0-381-170.58-381-381 0-77.83 23.362-152.061 66.26-214.78 0.577-0.844 1.666-2.383 3.265-4.616a48 48 0 0 0 8.492-34.734l-14.1-98.712a8 8 0 0 1 10.514-8.699l86.631 29.698a48 48 0 0 0 38.793-3.4c1.367-0.756 2.329-1.282 2.886-1.577C388.133 19.325 448.919 4 512 4c210.42 0 381 170.58 381 381S722.42 766 512 766z m-77-424c18.225 0 33-14.775 33-33s-14.775-33-33-33h-96c-18.225 0-33 14.775-33 33s14.775 33 33 33z m88 152c18.225 0 33-14.775 33-33s-14.775-33-33-33H339c-18.225 0-33 14.775-33 33s14.775 33 33 33z"  horiz-adv-x="1024" />

    
    <glyph glyph-name="dianhua" unicode="&#58905;" d="M251.435 777.606c-17.856-3.53-34.473-11.82-50.833-24.158-11.6-8.748-22.345-18.846-35.366-32.598l-2.212-2.35c-3.776-4.042-14.127-15.29-18.39-19.863l-1.076-1.147 0.52 0.528c-38.061-38.06-37.108-113.4-3.759-201.971 34.667-92.073 101.93-192.75 195.467-286.285 93.685-93.685 193.816-160.876 285.273-195.451 88.012-33.273 163.137-34.22 202.425 3.197l2.112 2.004a921.17 921.17 0 0 0 3.954 3.712l10.968 10.192c17.346 16.148 25.708 24.47 34.934 35.308 14.369 16.882 24.115 33.341 28.894 51.312 11.787 44.333-9.139 87.108-62.215 129.57-50.415 40.33-89.963 57.671-126.568 54.024-17.824-1.775-35.712-10.128-54.425-24.174l-0.754-0.568c-18.61-14.117-43.33-17.006-64.62-7.595-47.074 20.81-86.63 47.338-118.87 79.578-32.194 32.195-58.693 71.685-79.49 118.675a64 64 0 0 0 7.372 64.367l0.426 0.56c11.705 15.215 19.367 29.494 22.585 43.615 9.038 39.646-7.677 82.417-52.158 138.019-39.53 49.412-81.102 70.015-124.194 61.499z m35.334-66.53c11.514-5.706 24.547-17.028 38.884-34.95l1.301-1.633c17.624-22.224 28.879-40.463 34.65-55.23 4.512-11.547 5.383-19.935 3.784-26.952-0.844-3.702-4.235-10.062-10.552-18.343l-0.36-0.471c-28.59-37.162-34.573-86.98-15.596-129.854 23.907-54.015 54.825-100.092 92.76-138.027 37.987-37.987 84.138-68.938 138.248-92.858 42.153-18.635 91.032-13.157 127.994 14.254l1.741 1.308 1.002 0.745c9.61 7.074 16.952 10.45 21.282 10.88 7.067 0.705 15.83-0.963 27.34-6.01 14.45-6.335 31.944-17.538 52.903-34.306l1.42-1.142c18.745-15.193 30.404-28.623 36.027-40.116 4.066-8.311 4.744-14.944 2.898-21.89-1.942-7.303-6.884-15.723-15.29-25.697l-1.49-1.744c-6.767-7.834-13.943-14.936-28.492-28.488l-11.802-10.971a864.6 864.6 0 0 1-6.075-5.728c-6.717-6.397-21.122-10.67-42.375-10.402-25.572 0.322-57.617 7.242-93.28 20.724-82.579 31.22-175.137 93.329-262.65 180.842-87.327 87.326-149.503 180.387-180.826 263.581-13.485 35.813-20.418 67.966-20.74 93.444-0.262 20.693 3.817 34.463 9.657 40.518l0.523 0.527 1.816 1.935c4.902 5.26 15.944 17.263 18.758 20.256l1.382 1.464c22.426 23.663 38.027 35.27 52.233 38.078 7.277 1.438 14.46 0.452 22.925-3.743z"  horiz-adv-x="1024" />

    
    <glyph glyph-name="dingwei" unicode="&#58906;" d="M511 831c206.554 0 374-167.44 374-373.987C885 250.465 634.967-65 511-65c-123.967 0-374 315.465-374 522.013C137 663.56 304.446 831 511 831z m0-64c-171.209 0-310-138.787-310-309.987 0-80.144 50.132-195.945 127.832-300.222 36.087-48.43 75.294-90.31 111.49-119.358 17.185-13.792 33.106-24.208 46.843-30.84l1.152-0.55C498.779 1.107 506.643-1 511-1c4.515 0 12.798 2.263 23.835 7.592 13.737 6.633 29.658 17.049 46.844 30.84 36.195 29.048 75.402 70.929 111.49 119.359C770.868 261.068 821 376.869 821 457.013 821 628.213 682.209 767 511 767z m0-164c72.902 0 132-59.098 132-132s-59.098-132-132-132-132 59.098-132 132 59.098 132 132 132z m0-64c-37.555 0-68-30.445-68-68s30.445-68 68-68 68 30.445 68 68-30.445 68-68 68z"  horiz-adv-x="1024" />

    
    <glyph glyph-name="dianzan" unicode="&#58908;" d="M554.835 787.713l0.017-0.005c66.625-17.873 106.163-86.414 88.315-153.1l-34.006-120.21c-2.405-8.503 2.538-17.346 11.041-19.751a16 16 0 0 1 4.355-0.604h169.807c70.693 0 128-57.308 128-128a128 128 0 0 0-3.585-30.082l-43.124-178.363C849.61 49.88 753.199-26 642.376-26H230c-70.692 0-128 57.308-128 128V372.632c0 67.053 54.357 121.41 121.41 121.41h60.621c35.929 0 67.45 23.953 77.076 58.567l40.8 146.72c17.845 66.673 86.313 106.244 152.928 88.384zM258 430.048h-28c-35.346-0.001-64-28.655-64-64.001V102c0-35.346 28.654-64 64-64h28V430.048z m205.947 252.74l-39.459-142.805c-14.093-51.002-53.558-89.692-102.486-103.959L322 38h317.816c83.185 0 155.534 57 175.002 137.875l42.171 175.194c8.272 34.365-12.88 68.929-47.245 77.2a64 64 0 0 1-14.977 1.778H583.512c-26.51 0-48 21.49-48 48a48 48 0 0 0 1.749 12.837l44.489 160.304c8.629 32.22-10.21 65.326-42.155 74.448l-0.984 0.272c-32.524 8.714-65.952-10.592-74.664-43.12z"  horiz-adv-x="1024" />

    
    <glyph glyph-name="dingdan" unicode="&#58909;" d="M618 831.5H406c-48.03 0-89.743-32.072-102.542-77.635l-0.103-0.365H264c-70.416 0-127.5-57.084-127.5-127.5v-562c0-70.416 57.084-127.5 127.5-127.5h496c70.416 0 127.5 57.084 127.5 127.5V626c0 70.416-57.084 127.5-127.5 127.5h-39.355l-0.103 0.365C707.743 799.428 666.03 831.5 618 831.5z m142-141c35.622 0 64.5-28.878 64.5-64.5v-562.004l-0.009-1.062c-0.57-35.172-29.266-63.434-64.491-63.434H263.996l-1.062 0.009c-35.172 0.57-63.434 29.266-63.434 64.491V626.004l0.009 1.062c0.57 35.172 29.266 63.434 64.491 63.434l39.931-0.001 0.108-0.356C317.508 645.576 358.726 614.5 406 614.5h212c47.274 0 88.493 31.077 101.962 75.644l0.107 0.356H760z m-156-402H420c-17.397 0-31.5-14.103-31.5-31.5v-2c0-17.397 14.103-31.5 31.5-31.5h184c17.397 0 31.5 14.103 31.5 31.5v2c0 17.397-14.103 31.5-31.5 31.5z m0 186H420c-17.397 0-31.5-14.103-31.5-31.5v-2c0-17.397 14.103-31.5 31.5-31.5h184c17.397 0 31.5 14.103 31.5 31.5v2c0 17.397-14.103 31.5-31.5 31.5z m14 294c24.024 0 43.5-19.476 43.5-43.5v-4.004l-0.006-0.715C661.11 696.56 641.756 677.5 618 677.5H405.996l-0.715 0.006C381.56 677.89 362.5 697.244 362.5 721v4.004l0.006 0.715C362.89 749.44 382.244 768.5 406 768.5h212z"  horiz-adv-x="1024" />

    
    <glyph glyph-name="youhuiquan1" unicode="&#58910;" d="M806.23 684.41l37.533-103.118C884.125 561.965 912 520.738 912 473v-75.302a80 80 0 0 0-28.355-61.097C869.215 324.403 862 310.203 862 294s7.215-30.403 21.645-42.6A80 80 0 0 0 912 190.301V115c0-66.274-53.726-120-120-120H232c-66.274 0-120 53.726-120 120v75.302a80 80 0 0 0 28.355 61.097C154.785 263.597 162 277.797 162 294s-7.215 30.403-21.645 42.6A80 80 0 0 0 112 397.699V473l0.015 1.946c-2.837 53.849 26.66 104.191 76.44 122.31L649.521 765.07c62.107 22.605 132.268-13.508 156.71-80.66zM232.143 529c-30.743 0-55.738-24.783-55.999-55.525-0.035-4.114-0.083-8.008-0.143-11.681v-50.295a40 40 0 0 1 12.958-29.474C213.653 359.368 226 330.026 226 294s-12.347-65.368-37.042-88.024A40 40 0 0 1 176 176.5v-61.495c0-30.927 25.072-56 56-56l559.811-0.005c30.83 0 55.862 24.92 56 55.75 0.033 7.295 0.096 13.78 0.189 19.455v42.295a40 40 0 0 1-12.958 29.475C810.347 228.632 798 257.974 798 294s12.347 65.368 37.042 88.025A40 40 0 0 1 848 411.5v61.495c0 30.927-25.072 56-56 56L232.142 529zM384 396c17.673 0 32-14.327 32-32v-140c0-17.673-14.327-32-32-32-17.673 0-32 14.327-32 32V364c0 17.673 14.327 32 32 32z m294.368 311.683l-0.756-0.267L363.256 593h407.6l-29.112 79.987c-10.151 27.891-38.395 43.277-63.376 34.695z"  horiz-adv-x="1024" />

    
    <glyph glyph-name="xueli" unicode="&#58911;" d="M579 756l347-164c29.528-13.72 42.39-49.464 28-79a57.612 57.612 0 0 0-28-29l-110-51.987v-263.154c0-49.662-28.725-94.841-73.696-115.91C665.536 16.983 588.768-1 512-1s-153.536 17.983-230.304 53.95C236.726 74.017 208 119.196 208 168.858v263.02L98 484c-29.404 14.063-42.152 49.29-28.424 79.098L70 564c5.774 12.36 15.808 22.384 28 28l344 163c42.9 21.078 93.153 21.172 137 1z m173-359.39l-168.598-70.988a184 184 0 0 0-142.804 0L272 396.611v-227.752a64 64 0 0 1 36.848-57.955C377.325 78.822 444.868 63 512 63c67.131 0 134.675 15.822 203.152 47.904A64 64 0 0 1 752 168.859V396.61zM892 421c17.673 0 32-14.327 32-32v-96c0-17.673-14.327-32-32-32-17.673 0-32 14.327-32 32v96c0 17.673 14.327 32 32 32zM553.311 694.336c-22.914 10.295-64.372 10.246-86.311-0.315h-1L167.782 552.6l-0.301-0.146c-7.769-3.881-11.039-13.283-7.3-21.166a16 16 0 0 1 7.709-7.652L466 384.983l0.677-0.314c22.55-10.254 64.049-10.3 86.323 0.314h1l301.668 138.621 0.299 0.141c7.817 3.786 11.202 13.15 7.559 21.078a16 16 0 0 1-7.75 7.808L554 694.021z"  horiz-adv-x="1024" />

    
    <glyph glyph-name="xiazai" unicode="&#58912;" d="M537 757c165.23 0 302.183-121.067 326.991-279.332C922.626 429.247 960 355.988 960 274c0-145.803-118.197-264-264-264H348c-156.942 0.542-284 127.933-284 285 0 115.73 68.98 215.348 168.067 259.984C282.35 673.704 399.947 757 537 757z m0-64c-108.247 0-204.502-64.996-246.001-162.976l-6.113-14.433a24 24 0 0 0-12.242-12.522l-14.291-6.438C179.66 461.183 128 382.812 128 295c0-120.513 96.481-218.546 216.474-220.956l3.643-0.044H696c110.457 0 200 89.543 200 200 0 60.52-26.962 116.498-72.761 154.32l-11.698 9.66a24 24 0 0 0-8.428 14.79l-2.35 14.987C780.558 596.66 668.927 693 537 693z m-25-191c17.673 0 32-14.327 32-32v-176.285l46.485 46.025c12.56 12.434 32.82 12.333 45.255-0.225 12.31-12.434 12.334-32.416 0.148-44.88l-0.373-0.375-85.444-84.598c-20.908-20.7-54.484-20.824-75.543-0.434l-0.635 0.624-84.52 84.52c-12.497 12.497-12.497 32.759 0 45.255C401.744 352 421.726 352.123 434.25 340l0.377-0.372L480 294.255V470c0 17.673 14.327 32 32 32z"  horiz-adv-x="1024" />

    
    <glyph glyph-name="xiazaiwancheng" unicode="&#58914;" d="M537 757c165.23 0 302.183-121.067 326.991-279.332C922.626 429.247 960 355.988 960 274c0-145.803-118.197-264-264-264H348c-156.942 0.542-284 127.933-284 285 0 115.73 68.98 215.348 168.067 259.984C282.35 673.704 399.947 757 537 757z m0-64c-108.247 0-204.502-64.996-246.001-162.976l-6.113-14.433a24 24 0 0 0-12.242-12.522l-14.291-6.438C179.66 461.183 128 382.812 128 295c0-120.513 96.481-218.546 216.474-220.956l3.643-0.044H696c110.457 0 200 89.543 200 200 0 60.52-26.962 116.498-72.761 154.32l-11.698 9.66a24 24 0 0 0-8.428 14.79l-2.35 14.987C780.558 596.66 668.927 693 537 693z m139.647-292.862c10.463-14.023 7.712-33.815-6.088-44.465l-0.421-0.32-176.87-131.982c-28.202-21.045-68.103-15.375-89.326 12.694l-67.467 89.23c-10.659 14.098-7.872 34.166 6.226 44.825 13.956 10.552 33.764 7.926 44.502-5.806l0.322-0.42 57.878-76.548c5.306-7.017 15.281-8.435 22.331-3.173l164.128 122.474c14.164 10.569 34.215 7.655 44.785-6.51z"  horiz-adv-x="1024" />

    
    <glyph glyph-name="kechengxiangqing" unicode="&#58922;" d="M767 827c70.692 0 128-57.308 128-128v-632c0-70.692-57.308-128-128-128H255c-70.692 0-128 57.308-128 128V699c0 70.692 57.308 128 128 128h512z m0-64H255c-34.993 0-63.426-28.084-63.991-62.942L191 699v-632c0-34.993 28.084-63.426 62.942-63.991L255 3h512c34.993 0 63.426 28.084 63.991 62.942L831 67V699c0 35.346-28.654 64-64 64zM435 424c18.225 0 33-14.775 33-33s-14.775-33-33-33h-96c-18.225 0-33 14.775-33 33s14.775 33 33 33z m88 152c18.225 0 33-14.775 33-33s-14.775-33-33-33H339c-18.225 0-33 14.775-33 33s14.775 33 33 33z"  horiz-adv-x="1024" />

    
    <glyph glyph-name="fangda" unicode="&#58923;" d="M443.744 827.744c207.36 0 375.456-168.128 375.456-375.488 0-100.064-39.168-191.04-103.008-258.336l215.2-215.168a32 32 0 0 0 0-45.248l-3.008-3.04a32 32 0 0 0-45.28 0l-218.24 218.304a373.76 373.76 0 0 0-221.12-71.968c-207.36 0-375.488 168.096-375.488 375.456S236.384 827.744 443.744 827.744z m0-68.288a307.2 307.2 0 1 1 0-614.4 307.2 307.2 0 0 1 0 614.4z m2.112-136.512a32 32 0 0 0 32-32V486.4l104.544-0.032a32 32 0 0 0 32-32v-4.256a32 32 0 0 0-32-32h-104.544V313.6a32 32 0 0 0-32-32H441.6a32 32 0 0 0-32 32v104.544H305.024a32 32 0 0 0-32 32V454.4a32 32 0 0 0 32 32H409.6l0.032 104.544a32 32 0 0 0 32 32h4.256z"  horiz-adv-x="1024" />

    
    <glyph glyph-name="wode" unicode="&#58926;" d="M512 753.066667c-123.733333 0-224-100.266667-224-224S388.266667 305.066667 512 305.066667 736 405.333333 736 529.066667 635.733333 753.066667 512 753.066667z m0-384c-87.466667 0-160 72.533333-160 160s72.533333 160 160 160 160-72.533333 160-160-72.533333-160-160-160zM512 369.066667c-181.333333 0-332.8-138.666667-349.866667-315.733334-2.133333-19.2 12.8-36.266667 32-36.266666 17.066667 0 29.866667 12.8 32 29.866666 14.933333 145.066667 136.533333 256 283.733334 256s268.8-113.066667 283.733333-256c2.133333-17.066667 14.933333-29.866667 32-29.866666 19.2 0 34.133333 17.066667 32 36.266666-14.933333 177.066667-164.266667 315.733333-345.6 315.733334z"  horiz-adv-x="1024" />

    
    <glyph glyph-name="icon_address" unicode="&#58985;" d="M523.52-13.44c-192 0-384 51.2-384 149.12 0 53.44 57.6 97.6 162.24 124.16a32 32 0 1 0 15.68-61.76c-82.88-21.44-113.92-49.6-113.92-64 0-30.08 121.28-85.12 320-85.12s320 55.04 320 85.12c0 12.8-32 40.96-114.24 64a32 32 0 1 0 15.68 61.76c104.96-26.56 162.56-70.72 162.56-124.16 0-97.92-193.28-149.12-384-149.12zM523.52 185.28l-20.8 17.6c-23.04 19.52-224 194.24-224 323.2a245.44 245.44 0 0 0 490.56 0c0-128-201.6-303.68-224-323.2z m0 521.92a181.44 181.44 0 0 1-181.44-181.12c0-68.8 104-185.92 181.44-256 77.44 70.4 181.12 187.52 181.12 256a181.44 181.44 0 0 1-181.12 181.12zM523.52 387.2a138.88 138.88 0 1 0 138.56 138.88 139.2 139.2 0 0 0-138.56-138.88z m0 213.44a74.88 74.88 0 1 1 74.56-74.56 74.88 74.88 0 0 1-74.56 74.56z"  horiz-adv-x="1024" />

    
    <glyph glyph-name="icon_alarmclock" unicode="&#58987;" d="M523.52 16.32a354.56 354.56 0 0 0-316.16 515.52 32 32 0 0 0 56.96-29.12 283.84 283.84 0 0 1-32-131.52 290.88 290.88 0 1 1 581.44 0 288 288 0 0 1-32 131.52 290.56 290.56 0 0 1-390.72 128 32 32 0 1 0-29.12 56.96 354.56 354.56 0 1 0 160-672zM523.52 339.2a32 32 0 0 0-32 32V609.92a32 32 0 0 0 64 0v-238.72a32 32 0 0 0-32-32zM682.56 339.2h-160a32 32 0 0 0 0 64h160a32 32 0 1 0 0-64zM796.16 475.84l-13.44 26.88a293.12 293.12 0 0 1-128 128l-26.88 13.44L640 672a139.52 139.52 0 1 0 183.68-183.68z m-81.28 193.6a352 352 0 0 0 106.88-106.88A75.52 75.52 0 0 1 768 691.2a74.88 74.88 0 0 1-53.12-21.76zM250.56 475.84L224 488A139.52 139.52 0 1 0 406.72 672l11.84-27.84-26.88-13.44a292.16 292.16 0 0 1-128-128z m28.48 215.36a75.52 75.52 0 0 1-75.52-75.52A77.12 77.12 0 0 1 224 562.56a354.56 354.56 0 0 0 106.88 106.88 74.56 74.56 0 0 1-51.84 21.76zM192 2.56a32 32 0 0 0-22.72 9.28 32 32 0 0 0 0 45.44l97.92 97.6a32 32 0 0 0 45.12-45.12l-98.88-97.92a32 32 0 0 0-21.44-9.28zM856 2.56a32 32 0 0 0-22.72 9.28L736 109.76a32 32 0 0 0 0 45.12 32 32 0 0 0 45.44 0l97.6-97.6a32 32 0 0 0-22.4-54.72z"  horiz-adv-x="1024" />

    
    <glyph glyph-name="icon_Cloud" unicode="&#58988;" d="M696 22.08a32 32 0 0 0 0 64 211.84 211.84 0 0 1 209.92 186.24 199.36 199.36 0 0 1 0 23.68 211.52 211.52 0 0 1-198.4 211.2h-13.12A209.92 209.92 0 0 1 546.24 448a195.52 195.52 0 0 1-22.08-26.24 32 32 0 0 0-44.8-7.36 32 32 0 0 0-7.36 44.48 252.8 252.8 0 0 0 29.12 34.24 268.8 268.8 0 0 0 212.48 80 275.2 275.2 0 0 0 257.92-274.88c0-9.6 0-19.2-1.6-28.8v-1.92a275.52 275.52 0 0 0-273.92-244.8zM696 22.08H300.16a224 224 0 0 0-42.24 445.76v25.92A242.24 242.24 0 0 0 499.84 736h6.4a240.96 240.96 0 0 0 235.84-187.84l-64-14.4A176.96 176.96 0 0 1 506.24 672h-6.4a178.24 178.24 0 0 1-177.92-177.92v-84.48h-30.08a160 160 0 0 1 8.32-320h395.84z"  horiz-adv-x="1024" />

    
    <glyph glyph-name="icon_list" unicode="&#59006;" d="M800-69.12H246.08a124.48 124.48 0 0 0-124.48 124.48V702.4a124.8 124.8 0 0 0 124.48 124.48H800a124.48 124.48 0 0 0 124.48-124.48v-647.04A124.48 124.48 0 0 0 800-69.12z m-553.92 832A60.48 60.48 0 0 1 185.6 702.4v-647.04a60.48 60.48 0 0 1 60.48-60.48H800a60.48 60.48 0 0 1 60.48 60.48V702.4A60.48 60.48 0 0 1 800 762.88zM350.08 508.48H304a32 32 0 0 0 0 64h46.08a32 32 0 0 0 0-64zM743.04 508.48h-300.48a32 32 0 1 0 0 64h300.48a32 32 0 0 0 0-64zM350.08 346.88H304a32 32 0 0 0 0 64h46.08a32 32 0 1 0 0-64zM743.04 346.88h-300.48a32 32 0 0 0 0 64h300.48a32 32 0 0 0 0-64zM350.08 184.96H304a32 32 0 0 0 0 64h46.08a32 32 0 0 0 0-64zM743.04 184.96h-300.48a32 32 0 1 0 0 64h300.48a32 32 0 0 0 0-64z"  horiz-adv-x="1024" />

    
    <glyph glyph-name="icon_export" unicode="&#59008;" d="M797.12-5.12H249.6a110.08 110.08 0 0 0-110.08 110.08V652.48A110.4 110.4 0 0 0 249.6 762.88h273.92a32 32 0 0 0 0-64H249.6a46.08 46.08 0 0 1-46.08-46.4v-547.52a46.08 46.08 0 0 1 46.08-46.08h547.52a46.4 46.4 0 0 1 46.4 46.08v273.92a32 32 0 1 0 64 0v-273.92a110.4 110.4 0 0 0-110.4-110.08zM875.52 499.2a32 32 0 0 0-32 32V698.88h-153.92a32 32 0 0 0 0 64h166.4a51.84 51.84 0 0 0 51.52-51.52v-180.16a32 32 0 0 0-32-32z m-19.52 199.68zM526.08 349.76a32 32 0 0 0-22.4 9.28 32 32 0 0 0 0 45.12L841.6 742.4a32 32 0 0 0 45.44-45.44L548.8 359.04a32 32 0 0 0-22.72-9.28z"  horiz-adv-x="1024" />

    
    <glyph glyph-name="icon_chat" unicode="&#59009;" d="M211.2 80.32a52.16 52.16 0 0 0-30.08 8.32c-27.2 18.24-23.36 54.4-19.84 89.28a259.52 259.52 0 0 1 1.92 33.6 316.8 316.8 0 0 0-87.68 216C75.52 615.68 250.24 768 464.96 768s389.76-152.32 389.76-340.48-174.72-341.44-389.76-341.44a437.76 437.76 0 0 0-147.2 24.96 256 256 0 0 1-40.96-15.04 192 192 0 0 0-65.6-15.68z m0 64zM464.96 704C285.44 704 139.52 580.48 139.52 427.52a253.76 253.76 0 0 1 73.28-175.36c18.24-19.2 15.36-48.96 12.16-80.64 0-7.04-1.92-17.28-2.24-25.28 9.6 2.88 22.4 7.68 32 10.88a128 128 0 0 0 85.44 14.4 366.4 366.4 0 0 1 125.44-21.44c179.84 0 325.76 124.48 325.76 277.44S644.8 704 464.96 704zM835.52-11.2a204.16 204.16 0 0 0-65.6 17.28 141.44 141.44 0 0 1-42.88 13.12 441.6 441.6 0 0 0-227.2-16.96A32 32 0 1 0 512 64a384 384 0 0 1 195.84 15.04 130.56 130.56 0 0 0 85.44-14.08c8.64-3.2 21.44-8.32 32-10.88 0 8 0 17.92-1.92 25.28a100.16 100.16 0 0 0 10.88 80.64 256 256 0 0 1 73.28 175.04 238.08 238.08 0 0 1-20.16 96 32 32 0 0 0 58.88 25.28 305.28 305.28 0 0 0 25.28-121.28 320 320 0 0 0-87.68-216 256 256 0 0 1 1.92-32c3.52-35.2 7.04-71.36-19.84-89.28a54.08 54.08 0 0 0-30.4-8.96zM262.08 427.52m-40.96 0a40.96 40.96 0 1 1 81.92 0 40.96 40.96 0 1 1-81.92 0ZM464.96 427.52m-40.96 0a40.96 40.96 0 1 1 81.92 0 40.96 40.96 0 1 1-81.92 0ZM668.16 427.52m-40.96 0a40.96 40.96 0 1 1 81.92 0 40.96 40.96 0 1 1-81.92 0Z"  horiz-adv-x="1024" />

    
    <glyph glyph-name="icon_folder" unicode="&#59010;" d="M463.04-8.96H152a76.8 76.8 0 0 0-76.48 76.48V690.24A76.8 76.8 0 0 0 152 768h179.84L448 699.84h326.4a76.48 76.48 0 0 0 76.48-76.48v-66.88h-64V623.36a12.48 12.48 0 0 1-12.48 12.48H432.32L314.88 704H152a12.48 12.48 0 0 1-12.48-12.48v-624a12.48 12.48 0 0 1 12.48-12.48h311.04zM762.88-8.96H142.4a67.2 67.2 0 0 0-53.76 25.28 70.08 70.08 0 0 0-10.56 60.48l117.44 438.08a96 96 0 0 0 88.32 69.12h620.8a66.24 66.24 0 0 0 53.44-25.28 68.16 68.16 0 0 0 10.56-60.48l-117.12-438.08a96 96 0 0 0-88.64-69.12z m-480 528.96a32 32 0 0 1-26.56-21.76L139.84 60.16a13.76 13.76 0 0 1 0-4.8h623.04a32 32 0 0 1 26.56 21.76l117.44 438.08a7.04 7.04 0 0 1 0 5.12z"  horiz-adv-x="1024" />

    
    <glyph glyph-name="icon_search" unicode="&#59011;" d="M463.04 115.84a323.52 323.52 0 1 0 228.8 96 320 320 0 0 0-228.8-96z m0 583.04a259.84 259.84 0 1 1 183.68-76.16 259.84 259.84 0 0 1-183.68 76.16zM875.52-5.12a32 32 0 0 0-22.72 9.28l-206.08 206.4A32 32 0 0 0 691.84 256l206.08-206.08a32 32 0 0 0 0-45.44 32 32 0 0 0-22.4-9.6z"  horiz-adv-x="1024" />

    
    <glyph glyph-name="huodonglipin" unicode="&#58928;" d="M879.373103 598.981742H705.0174A119.914514 119.914514 0 0 1 511.63526 739.921267a119.914514 119.914514 0 0 1-193.38214-140.899554H143.897417a31.977204 31.977204 0 0 1-31.977204-31.977204v-143.897417a31.977204 31.977204 0 0 1 31.977204-31.977203h47.965806v-375.732144a31.977204 31.977204 0 0 1 31.977203-31.977204h575.589668a31.977204 31.977204 0 0 1 31.977204 31.977204v375.732144h47.965805a31.977204 31.977204 0 0 1 31.977204 31.977203v143.897417a31.977204 31.977204 0 0 1-31.977204 31.937233z m-339.75779 63.954407a63.954408 63.954408 0 1 0 63.954408-63.954407h-63.954408z m-183.868921 0a63.954408 63.954408 0 1 0 127.908815 0v-63.954407h-63.954408a64.024358 64.024358 0 0 0-63.954407 63.954407z m419.700799-623.555473H247.823329v351.749241h527.623862z m79.943009 407.709348H167.88032v95.931611h687.50988z"  horiz-adv-x="1024" />

    
    <glyph glyph-name="daijinquan" unicode="&#58940;" d="M856.29 686.06v-129.11a176.05 176.05 0 0 1 0-333.77v-129.12h-688V223.18a176.05 176.05 0 0 1 0 333.77V686.06h688m24 56h-736a32 32 0 0 1-32-32v-184.93a16 16 0 0 1 14-15.87 120 120 0 0 0 0-238.38 16 16 0 0 1-14-15.87v-184.95a32 32 0 0 1 32-32h736a32 32 0 0 1 32 32V255a16 16 0 0 1-14 15.87 120 120 0 0 0 0 238.38 16 16 0 0 1 14 15.87V710.06a32 32 0 0 1-32 32zM672.29 526.06h-320a8 8 0 0 1-8-8v-40a8 8 0 0 1 8-8h320a8 8 0 0 1 8 8v40a8 8 0 0 1-8 8zM672.29 326.06h-320a8 8 0 0 1-8-8v-40a8 8 0 0 1 8-8h320a8 8 0 0 1 8 8v40a8 8 0 0 1-8 8z"  horiz-adv-x="1024" />

    
    <glyph glyph-name="gongyinglian" unicode="&#58941;" d="M964.23 396.76a16 16 0 0 1-8 13.85l-222 128.26a16 16 0 0 1-16 0l-110-63.55a16 16 0 0 1-8-13.85v-41.58a8 8 0 0 1 12-6.93l106 61.24a16 16 0 0 0 16 0l166-95.9a16 16 0 0 0 8-13.85v-197.9a16 16 0 0 0-8-13.85l-166-95.9a16 16 0 0 0-16 0l-166 95.9a16 16 0 0 0-8 13.85V640.28a16 16 0 0 1-8 13.85l-222 128.26a16 16 0 0 1-16 0l-222-128.26a16 16 0 0 1-8-13.85v-262.53a16 16 0 0 1 8-13.85l222-128.26a16 16 0 0 1 16 0l110 63.55a16 16 0 0 1 8 13.85v41.58a8 8 0 0 1-12 6.93l-106-61.24a16 16 0 0 0-16 0l-166 95.9a16 16 0 0 0-8 13.85V608a16 16 0 0 0 8 13.85l166 95.9a16 16 0 0 0 16 0l166-95.9a16 16 0 0 0 8-13.85v-473.77a16 16 0 0 1 8-13.85l222-128.26a16 16 0 0 1 16 0l222 128.26a16 16 0 0 1 8 13.85z"  horiz-adv-x="1024" />

    
    <glyph glyph-name="wenjianjia" unicode="&#58929;" d="M865.564444 796.728889H460.8L296.106667 888.888889a42.666667 42.666667 0 0 1-22.186667 5.973333H44.657778A44.942222 44.942222 0 0 1 0 851.342222v-721.351111a44.942222 44.942222 0 0 1 44.657778-44.657778h820.906666A44.942222 44.942222 0 0 1 910.222222 129.991111V751.786667a44.942222 44.942222 0 0 1-44.657778 44.942222zM270.791111 839.111111l164.408889-92.444444a46.933333 46.933333 0 0 1 22.186667-5.688889H853.333333v-108.088889H56.888889V839.111111zM56.888889 142.222222V576h796.444444V142.222222z"  horiz-adv-x="1293" />

    
    <glyph glyph-name="shengchanqushi" unicode="&#58930;" d="M881.777778 66.56h-64.568889V434.062222h-56.888889v-367.502222h-160.426667v262.542222h-56.888889v-262.542222h-175.786666V389.12h-56.888889v-322.56H149.902222v232.675556h-56.888889v-232.675556H28.444444a28.444444 28.444444 0 0 1 0-56.888889h853.333334a28.444444 28.444444 0 0 1 0 56.888889zM58.311111 393.955556a28.444444 28.444444 0 0 1 20.48 9.102222l256 269.368889 224.995556-151.04a28.444444 28.444444 0 0 1 37.546666 5.404444l227.555556 269.937778v-71.68a28.444444 28.444444 0 0 1 56.888889 0v142.222222a28.444444 28.444444 0 0 1-28.444445 28.444445h-148.764444a28.444444 28.444444 0 0 1 0-56.888889h80.213333l-214.755555-256-223.857778 150.186666a28.444444 28.444444 0 0 1-36.408889-3.982222L37.546667 442.026667a28.444444 28.444444 0 0 1 0-40.106667 28.444444 28.444444 0 0 1 20.764444-7.964444z"  horiz-adv-x="1183" />

    
    <glyph glyph-name="shengchanbaobiao" unicode="&#58931;" d="M149.048889 289.564444h484.124444v-56.888888H149.048889zM149.048889 483.555556h321.706667v-56.888889H149.048889zM149.048889 677.546667h209.066667v-56.888889H149.048889zM539.591111 896H33.564444A33.564444 33.564444 0 0 1 0 862.435556v-814.648889A33.564444 33.564444 0 0 1 33.564444 14.222222h715.093334a33.564444 33.564444 0 0 1 33.564444 33.564445V654.222222z m15.075556-95.573333L686.648889 668.444444H554.666667zM56.888889 71.111111V839.111111h440.888889v-199.111111l1.422222-29.866667h227.555556v-540.444444z"  horiz-adv-x="1189" />

    
    <glyph glyph-name="tubiao-zhexiantu" unicode="&#60310;" d="M896 0H96a32 32 0 0 0-32 32V672a32 32 0 0 0 64 0v-608h768a32 32 0 1 0 0-64zM247.008 256a32 32 0 0 0-20.992 56.192l200.992 174.24a32 32 0 0 0 42.272-0.288l172.128-153.44 229.088 246.304a32 32 0 0 0 46.88-43.616l-250.432-269.216a31.936 31.936 0 0 0-44.704-2.08l-174.56 155.52-179.744-155.84a31.872 31.872 0 0 0-20.928-7.776z"  horiz-adv-x="1024" />

    
    <glyph glyph-name="liebiao" unicode="&#60523;" d="M64 416h352V768H64v-352z m64 288h224v-224H128V704zM64-32h352V320H64v-352z m64 288h224v-224H128v224zM526.848 672H928a32 32 0 1 1 0 64H526.848a32 32 0 0 1 0-64zM928 288H526.848a32 32 0 1 1 0-64H928a32 32 0 1 1 0 64zM928 512H526.848a32 32 0 0 1 0-64H928a32 32 0 1 1 0 64zM928 64H526.848a32 32 0 1 1 0-64H928a32 32 0 1 1 0 64z"  horiz-adv-x="1024" />

    
    <glyph glyph-name="tuoguan" unicode="&#60558;" d="M858.016 250.368c-30.496-24.992-68.512-42.944-117.12-58.144-14.048-4.384-28.544-8.448-46.272-13.056-6.56-1.696-34.656-8.8-41.632-10.624a32 32 0 0 0-16.224 61.92c7.328 1.92 35.52 9.024 41.792 10.656a897.6 897.6 0 0 1 43.264 12.192c41.44 12.96 72.576 27.648 95.68 46.56 84.16 68.96 160.224 55.52 203.552-38.592l8.48-18.432-13.024-15.52C872.288 55.424 748.128-32 640-32l-548.256-15.2a32 32 0 0 0 0 64L640 32c80.96 0 186.72 72.512 313.664 220.16-22.72 37.312-49.088 36.32-95.648-1.792zM93.12 105.792a32 32 0 1 0-64 1.088L32.224 288l8.416 8.96c85.152 90.944 169.44 131.904 252.416 118.624 62.72-10.016 98.176-29.568 147.424-71.584l6.944-5.952c21.312-18.208 32.736-26.784 47.616-34.688 11.264-6.016 26.016-9.6 45.888-11.52 9.024-0.928 15.808-1.28 33.536-2.016 73.28-3.104 102.4-13.056 102.4-65.824 0-72-47.36-117.696-132.32-132.032-55.936-9.44-137.024 12.32-246.56 63.616a32 32 0 1 0 27.168 57.952c98.56-46.176 169.248-65.12 208.736-58.464 55.296 9.344 78.016 30.336 78.944 66.56-6.848 2.24-17.184 3.2-41.056 4.224a602.56 602.56 0 0 0-37.056 2.24c-27.488 2.688-49.856 8.16-69.76 18.784-20.096 10.688-34.496 21.472-59.104 42.528l-6.912 5.888c-41.088 35.072-66.784 49.248-116 57.12-56.224 8.96-118.464-19.84-187.168-90.368l-2.656-156.256zM224 526.272a32 32 0 1 0-64 0V672a64 64 0 0 0 64 64h608a64 64 0 0 0 64-64v-192a64 64 0 0 0-64-64H489.44a32 32 0 1 0 0 64H832V672H224v-145.728z"  horiz-adv-x="1029" />

    
    <glyph glyph-name="send" unicode="&#59174;" d="M832 320a32 32 0 0 1-32-32l0.256-192L224 95.744 223.744 672H416a32 32 0 0 1 0 64H223.744A63.84 63.84 0 0 1 160 672.256v-576.512C160 60.608 188.608 32 223.744 32h576.512A63.84 63.84 0 0 1 864 95.744V288a32 32 0 0 1-32 32M800.544 736H640a32 32 0 0 1 0-64l114.944 0.192-265.6-265.568a32 32 0 0 1 45.28-45.248l265.664 265.632v-115.264a32 32 0 1 1 64 0V672.256A63.84 63.84 0 0 1 800.544 736"  horiz-adv-x="1024" />

    
    <glyph glyph-name="setting" unicode="&#58907;" d="M272 832C157.1 832 64 738.9 64 624s93.1-208 208-208h207.6c0.2 0 0.4 0.2 0.4 0.4V624c0 114.9-93.1 208-208 208z m144-352H272c-38.5 0-74.6 15-101.8 42.2C143 549.4 128 585.5 128 624s15 74.6 42.2 101.8C197.4 753 233.5 768 272 768s74.6-15 101.8-42.2C401 698.6 416 662.5 416 624v-144zM752 832c-114.9 0-208-93.1-208-208v-207.6c0-0.2 0.2-0.4 0.4-0.4H752c114.9 0 208 93.1 208 208S866.9 832 752 832z m101.8-309.8C826.6 495 790.5 480 752 480H608V624c0 38.5 15 74.6 42.2 101.8C677.4 753 713.5 768 752 768s74.6-15 101.8-42.2C881 698.6 896 662.5 896 624s-15-74.6-42.2-101.8zM479.6 352H272c-114.9 0-208-93.1-208-208s93.1-208 208-208 208 93.1 208 208V351.6c0 0.2-0.2 0.4-0.4 0.4zM416 144c0-38.5-15-74.6-42.2-101.8C346.6 15 310.5 0 272 0s-74.6 15-101.8 42.2C143 69.4 128 105.5 128 144s15 74.6 42.2 101.8C197.4 273 233.5 288 272 288h144v-144zM752 352H544.4c-0.2 0-0.4-0.2-0.4-0.4V144c0-114.9 93.1-208 208-208s208 93.1 208 208-93.1 208-208 208z m101.8-309.8C826.6 15 790.5 0 752 0s-74.6 15-101.8 42.2C623 69.4 608 105.5 608 144V288h144c38.5 0 74.6-15 101.8-42.2C881 218.6 896 182.5 896 144s-15-74.6-42.2-101.8z"  horiz-adv-x="1024" />

    
    <glyph glyph-name="tel" unicode="&#58933;" d="M762 332c-68.5 0-130.5-34.5-166.6-91.4-118 14.9-211.2 110.8-222.7 229.3C427 506.5 460 567.5 460 634c0 109.2-88.9 198-198 198-109.2 0-198-88.8-198-198 0-369.3 389.6-698 696.8-698h1.3c109.1 0.3 197.9 89.1 197.9 198 0 109.1-88.8 198-198 198z m-0.1-332h-1.1C485.9 0 128 309.2 128 634c0 72.1 61.9 134 134 134s134-61.9 134-134c0-48.9-22.2-95.3-65.6-117.9l-20.5-11.6 0.5-16.9c3.7-169.3 131.1-306 300.2-313.8h21.1l7.7 17c22 45.6 72.1 77.2 122.6 77.2 72.1 0 134-61.9 134-134 0-71.9-61.9-133.8-134.1-134z"  horiz-adv-x="1024" />

    
    <glyph glyph-name="zhongxinbofang" unicode="&#58894;" d="M512 831c247.406 0 448-200.111 448-447 0-78.219-20.188-153.582-58.035-220.18-8.732-15.366-28.267-20.743-43.632-12.011a32.06 32.06 0 0 0-6.416 4.789 32.457 32.457 0 0 0-2.622 2.352L735.45 272.79499999999996c-12.496 12.496-12.496 32.758 0 45.255 12.497 12.496 32.759 12.496 45.255 0l84.533-84.532C885.403 280.534 896 331.476 896 384c0 211.508-171.905 383-384 383S128 595.508 128 384s171.905-383 384-383c66.906 0 131.25 17.06 188.222 49.08 15.406 8.66 34.915 3.19 43.574-12.216 8.66-15.407 3.19-34.916-12.217-43.575C665.093-43.08000000000004 589.96-63 512-63 264.594-63 64 137.111 64 384S264.594 831 512 831z"  horiz-adv-x="1024" />

    
    <glyph glyph-name="shijian" unicode="&#58897;" d="M512 832c247.424 0 448-200.576 448-448S759.424-64 512-64 64 136.57600000000002 64 384 264.576 832 512 832z m0-64c-212.077 0-384-171.923-384-384s171.923-384 384-384 384 171.923 384 384-171.923 384-384 384z m31.985-224.033c0 17.692-14.323 32.033-31.992 32.033-17.67 0-31.993-14.341-31.993-32.033v-147.374a64 64 0 0 1 18.888-45.398l108.583-107.898c12.54-12.462 32.797-12.386 45.244 0.171 12.447 12.557 12.37 32.839-0.171 45.3l-99.114 98.49a32 32 0 0 0-9.445 22.7v134.01z"  horiz-adv-x="1024" />

    
    <glyph glyph-name="fasong" unicode="&#58898;" d="M243.305 774.49L859.26 461.515c43.282-21.992 60.598-75.02 38.676-118.442a87.99 87.99 0 0 0-38.87-38.9L241.782-7.569c-43.336-21.886-96.15-4.384-117.966 39.092a88.39 88.39 0 0 0-5.538 65.411l86.029 282.098c0.925 3.035 0.932 6.277 0.018 9.316l-84.816 282.067c-14.012 46.6 12.284 95.772 58.733 109.83a87.592 87.592 0 0 0 65.064-5.754z m-47.388-55.513c-12.683-3.83-19.863-17.224-16.037-29.918L262.18 416h206.938c17.681 0 32.015-14.323 32.015-31.992 0-17.67-14.334-31.992-32.015-31.992h-207.1l-83.445-272.98a24.026 24.026 0 0 1 1.513-17.818c5.956-11.843 20.378-16.61 32.21-10.65l618.021 311.374a23.997 23.997 0 0 1 10.385 10.157l0.229 0.44 0.176 0.355c5.714 11.761 0.963 25.978-10.737 31.91L213.683 717.41a23.969 23.969 0 0 1-17.766 1.567z"  horiz-adv-x="1024" />

    
    <glyph glyph-name="biaoqing" unicode="&#58899;" d="M511 832c247.424 0 448-200.576 448-448S758.424-64 511-64 63 136.576 63 384 263.576 832 511 832z m0-64c-212.077 0-384-171.923-384-384s171.923-384 384-384 384 171.923 384 384-171.923 384-384 384z m132-398c27.83 0 50.508-22.308 50.992-50.104l0.01-0.886-0.024-2.913-0.075-3.134C690.709 214.016 609.483 135 510 135c-100.488 0-182.348 80.62-183.975 180.968L326 318.87l0.007 0.973C326.457 347.621 349.115 370 377 370z m-23.004-64H399.98a8 8 0 0 1-7.88-9.382c0.143-0.817 0.28-1.535 0.408-2.155 11.2-53.932 58.595-94.534 115.53-95.447L510 199c57.251 0 105.235 40.132 117.156 93.897 0.225 1.016 0.465 2.26 0.721 3.732a8 8 0 0 1-7.881 9.371z"  horiz-adv-x="1024" />

    
    <glyph glyph-name="suo" unicode="&#58900;" d="M509 830c117.084 0 212-94.916 212-212v-57h63c70.692 0 128-57.308 128-128v-368c0-70.692-57.308-128-128-128H240c-70.692 0-128 57.308-128 128V433c0 70.692 57.308 128 128 128h57v57c0 117.084 94.916 212 212 212z m275-333H240c-35.346 0-64-28.654-64-64v-368c0-35.346 28.654-64 64-64h544c35.346 0 64 28.654 64 64V433c0 35.346-28.654 64-64 64zM511 354c17.673 0 32-14.327 32-32v-144c0-17.673-14.327-32-32-32-17.673 0-32 14.327-32 32V322c0 17.673 14.327 32 32 32z m-2 412c-81.738 0-148-66.262-148-148v-57h296v57c0 81.738-66.262 148-148 148z"  horiz-adv-x="1024" />

    
    <glyph glyph-name="shezhi" unicode="&#58901;" d="M575.484 797.133l262.419-151.201C877.56 623.082 902 580.794 902 535.024v-302.048c0-45.77-24.439-88.057-64.097-110.908l-262.419-151.2c-39.598-22.817-88.356-22.79-127.929 0.07L185.974 122.045C146.385 144.913 122 187.162 122 232.88V535.119c0 45.72 24.385 87.968 63.974 110.836L447.555 797.062c39.573 22.86 88.331 22.887 127.93 0.07z m-94.968-55.55l-262.452-151.12A64 64 0 0 1 186 535v-302a64 64 0 0 1 32.064-55.463l262.452-151.12a64 64 0 0 1 63.945 0.042l261.548 151.064A64 64 0 0 1 838 232.943V535.057a64 64 0 0 1-31.99 55.42L544.46 741.541a64 64 0 0 1-63.945 0.042zM512 518c72.902 0 132-59.098 132-132s-59.098-132-132-132-132 59.098-132 132 59.098 132 132 132z m0-64c-37.555 0-68-30.445-68-68s30.445-68 68-68 68 30.445 68 68-30.445 68-68 68z"  horiz-adv-x="1024" />

    
    <glyph glyph-name="compass" unicode="&#59261;" d="M512 832C264.6 832 64 631.4 64 384s200.6-448 448-448 448 200.6 448 448S759.4 832 512 832z m0-820c-205.4 0-372 166.6-372 372s166.6 372 372 372 372-166.6 372-372-166.6-372-372-372zM710.4 600.1c-8 3.1-16.7 2.9-24.5-0.5L414.9 481 296.4 210c-3.6-8.2-3.6-17.5 0-25.7 3.4-7.8 9.7-13.9 17.7-17 3.8-1.5 7.7-2.2 11.7-2.2 4.4 0 8.7 0.9 12.8 2.7l271 118.6 118.5 271c3.6 8.2 3.6 17.5 0 25.7-3.5 7.9-9.8 13.9-17.7 17zM576.8 361.6l26.2-26.2-42.4-42.4-26.2 26.2L380 251.6 447.5 406 422 431.6l42.4 42.4 25.5-25.5L644.4 516l-67.6-154.4zM464.4 474L422 431.6l25.5-25.6 86.9-86.8 26.2-26.2 42.4 42.4-26.2 26.2-86.8 86.9z"  horiz-adv-x="1024" />

    
    <glyph glyph-name="flag" unicode="&#59339;" d="M880 591H624V704c0 17.7-14.3 32-32 32H184v40c0 4.4-3.6 8-8 8h-56c-4.4 0-8-3.6-8-8v-784c0-4.4 3.6-8 8-8h56c4.4 0 8 3.6 8 8V256h248v-113c0-17.7 14.3-32 32-32h416c17.7 0 32 14.3 32 32V559c0 17.7-14.3 32-32 32zM184 328V664h368v-336H184z m656-145H504v73h112c4.4 0 8 3.6 8 8V519h216v-336z"  horiz-adv-x="1024" />

    
    <glyph glyph-name="folder-add" unicode="&#59345;" d="M484 452.9V368h-84.5c-4.1 0-7.5-3.1-7.5-7v-42c0-3.8 3.4-7 7.5-7H484v-84.9c0-3.9 3.2-7.1 7-7.1h42c3.9 0 7 3.2 7 7.1V312h84.5c4.1 0 7.5 3.2 7.5 7v42c0 3.9-3.4 7-7.5 7H540v84.9c0 3.9-3.1 7.1-7 7.1h-42c-3.8 0-7-3.2-7-7.1zM880 597.6H521L403.7 709.8c-1.5 1.4-3.5 2.2-5.5 2.2H144c-17.7 0-32-14.3-32-32v-592c0-17.7 14.3-32 32-32h736c17.7 0 32 14.3 32 32V565.6c0 17.7-14.3 32-32 32zM840 128H184V640h188.5l119.6-114.4H840V128z"  horiz-adv-x="1024" />

    
    <glyph glyph-name="cloud" unicode="&#59353;" d="M811.4 477.3C765.6 598.1 648.9 684 512.2 684S258.8 598.2 213 477.4C127.3 454.9 64 376.9 64 284c0-110.5 89.5-200 199.9-200h496.2C870.5 84 960 173.5 960 284c0 92.7-63.1 170.7-148.6 193.3z m36.3-281c-23.4-23.4-54.5-36.3-87.6-36.3H263.9c-33.1 0-64.2 12.9-87.6 36.3-23.4 23.4-36.3 54.6-36.3 87.7 0 28 9.1 54.3 26.2 76.3 16.7 21.3 40.2 36.8 66.1 43.7l37.9 9.9 13.9 36.6c8.6 22.8 20.6 44.1 35.7 63.4 14.9 19.2 32.6 35.9 52.4 49.9 41.1 28.9 89.5 44.2 140 44.2s98.9-15.3 140-44.2c19.9-14 37.5-30.8 52.4-49.9 15.1-19.3 27.1-40.7 35.7-63.4l13.8-36.5 37.8-10c54.3-14.5 92.1-63.8 92.1-120 0-33.1-12.9-64.3-36.3-87.7z"  horiz-adv-x="1024" />

    
    <glyph glyph-name="cloud-download" unicode="&#59354;" d="M624 189.70000000000005h-74.1V432c0 4.4-3.6 8-8 8h-60c-4.4 0-8-3.6-8-8v-242.3H400c-6.7 0-10.4-7.7-6.3-12.9l112-141.7c3.2-4.1 9.4-4.1 12.6 0l112 141.7c4.1 5.2 0.4 12.9-6.3 12.9zM811.4 529.3C765.6 650.1 648.9 736 512.2 736S258.8 650.2 213 529.4C127.3 506.9 64 428.8 64 336c0-110.5 89.5-200 199.9-200H304c4.4 0 8 3.6 8 8v60c0 4.4-3.6 8-8 8h-40.1c-33.7 0-65.4 13.4-89 37.7-23.5 24.2-36 56.8-34.9 90.6 0.9 26.4 9.9 51.2 26.2 72.1 16.7 21.3 40.1 36.8 66.1 43.7l37.9 9.9 13.9 36.6c8.6 22.8 20.6 44.1 35.7 63.4 14.9 19.2 32.6 35.9 52.4 49.9 41.1 28.9 89.5 44.2 140 44.2s98.9-15.3 140-44.2c19.9-14 37.5-30.8 52.4-49.9 15.1-19.3 27.1-40.7 35.7-63.4l13.8-36.5 37.8-10C846.1 441.5 884 392.2 884 336c0-33.1-12.9-64.3-36.3-87.7-23.4-23.4-54.5-36.3-87.6-36.3H720c-4.4 0-8-3.6-8-8v-60c0-4.4 3.6-8 8-8h40.1C870.5 136 960 225.5 960 336c0 92.7-63.1 170.7-148.6 193.3z"  horiz-adv-x="1024" />

    
    <glyph glyph-name="cloud-sync" unicode="&#59355;" d="M811.4 527.1C765.6 648 648.9 734 512.2 734S258.8 648.1 213 527.2C126.9 504.5 63.5 425.8 64 332.4 64.6 228 145.6 143.10000000000002 247.6 134c4.7-0.4 8.7 3.3 8.7 8v60.4c0 4-3 7.4-7 7.9-27 3.4-52.5 15.2-72.1 34.5-24 23.5-37.2 55.1-37.2 88.6 0 28 9.1 54.4 26.2 76.4 16.7 21.4 40.2 36.9 66.1 43.7l37.9 10 13.9 36.7c8.6 22.8 20.6 44.2 35.7 63.5 14.9 19.2 32.6 36 52.4 50 41.1 28.9 89.5 44.2 140 44.2s98.9-15.3 140-44.3c19.9-14 37.5-30.8 52.4-50 15.1-19.3 27.1-40.7 35.7-63.5l13.8-36.6 37.8-10c54.2-14.4 92.1-63.7 92.1-120 0-33.6-13.2-65.1-37.2-88.6-19.5-19.2-44.9-31.1-71.9-34.5-4-0.5-6.9-3.9-6.9-7.9V142c0-4.7 4.1-8.4 8.8-8 101.7 9.2 182.5 94 183.2 198.2 0.6 93.4-62.7 172.1-148.6 194.9zM376.9 239.60000000000002c1.8 33.5 15.7 64.7 39.5 88.6 25.4 25.5 60 39.8 96 39.8 36.2 0 70.3-14.1 96-39.8 1.4-1.4 2.7-2.8 4.1-4.3l-25-19.6c-5.3-4.1-3.5-12.5 3-14.1l98.2-24c5-1.2 9.9 2.6 9.9 7.7l0.5 101.3c0 6.7-7.6 10.5-12.9 6.3L663 363.29999999999995c-36.6 42-90.4 68.6-150.5 68.6-107.4 0-195-85.1-199.4-191.7-0.2-4.5 3.4-8.3 8-8.3H369c4.2 0.1 7.7 3.4 7.9 7.7zM703 232h-47.9c-4.2 0-7.7-3.3-8-7.6-1.8-33.5-15.7-64.7-39.5-88.6-25.4-25.5-60-39.8-96-39.8-36.2 0-70.3 14.1-96 39.8-1.4 1.4-2.7 2.8-4.1 4.3l25 19.6c5.3 4.1 3.5 12.5-3 14.1l-98.2 24c-5 1.2-9.9-2.6-9.9-7.7l-0.4-101.4c0-6.7 7.6-10.5 12.9-6.3l23.2 18.2c36.6-42 90.4-68.6 150.5-68.6 107.4 0 195 85.1 199.4 191.7 0.2 4.5-3.4 8.3-8 8.3z"  horiz-adv-x="1024" />

    
    <glyph glyph-name="gold" unicode="&#59359;" d="M342 424h342c0.4 0 0.9 0 1.3 0.1 4.4 0.7 7.3 4.8 6.6 9.2l-40.2 248c-0.6 3.9-4 6.7-7.9 6.7H382.2c-3.9 0-7.3-2.8-7.9-6.7l-40.2-248c-0.1-0.4-0.1-0.9-0.1-1.3 0-4.4 3.6-8 8-8z m91.2 196h159.5l20.7-128h-201l20.8 128zM435.7 337.3c-0.6 3.9-4 6.7-7.9 6.7H166.2c-3.9 0-7.3-2.8-7.9-6.7l-40.2-248c-0.1-0.4-0.1-0.9-0.1-1.3 0-4.4 3.6-8 8-8h342c0.4 0 0.9 0 1.3 0.1 4.4 0.7 7.3 4.8 6.6 9.2l-40.2 248zM196.5 148l20.7 128h159.5l20.7-128H196.5zM905.9 89.3l-40.2 248c-0.6 3.9-4 6.7-7.9 6.7H596.2c-3.9 0-7.3-2.8-7.9-6.7l-40.2-248c-0.1-0.4-0.1-0.9-0.1-1.3 0-4.4 3.6-8 8-8h342c0.4 0 0.9 0 1.3 0.1 4.3 0.7 7.3 4.8 6.6 9.2zM626.5 148l20.7 128h159.5l20.7-128H626.5z"  horiz-adv-x="1024" />

    
    <glyph glyph-name="search" unicode="&#59631;" d="M909.6 41.5L649.9 301.2C690.2 353.3 712 417 712 484c0 80.2-31.3 155.4-87.9 212.1-56.6 56.7-132 87.9-212.1 87.9s-155.5-31.3-212.1-87.9C143.2 639.5 112 564.2 112 484c0-80.1 31.3-155.5 87.9-212.1C256.5 215.2 331.8 184 412 184c67 0 130.6 21.8 182.7 62l259.7-259.6c3.2-3.2 8.4-3.2 11.6 0l43.6 43.5c3.2 3.2 3.2 8.4 0 11.6zM570.4 325.6C528 283.3 471.8 260 412 260s-116 23.3-158.4 65.6C211.3 368 188 424.2 188 484s23.3 116.1 65.6 158.4C296 684.7 352.2 708 412 708s116.1-23.2 158.4-65.6S636 543.8 636 484s-23.3-116.1-65.6-158.4z"  horiz-adv-x="1024" />

    
    <glyph glyph-name="icon-test6" unicode="&#58947;" d="M832 187.904v-120.864C494.816 97.6 225.6 366.816 195.04 704h196.544l27.136-101.312-23.776-6.368-61.728-16.544c5.12-20.896 11.456-41.28 19.072-61.12a516.032 516.032 0 0 1 297.632-296.832c19.872-7.552 40.256-13.888 61.184-18.976l16.544 61.76 6.688 24.96L832 263.36v-75.456z m42.4 129.984l0.096 0.32-123.616 33.12 0.032 0.128-30.912 8.32a31.936 31.936 0 0 1-33.568-11.36 32.32 32.32 0 0 1-5.696-11.392l-8.256-30.944h0.032l-5.984-22.24a451.84 451.84 0 0 0-252.224 251.392l20.992 5.664 0.032-0.096 30.912 8.32a32 32 0 0 1 22.624 39.168l-41.408 154.56-0.8-0.224A31.52 31.52 0 0 1 416 768H160.832c-18.496 0-32.864-15.616-31.968-34.112 0.512-10.016 1.184-19.968 2.016-29.888C161.792 331.52 459.52 33.792 832 2.88c9.92-0.832 19.872-1.504 29.888-2.016a32.224 32.224 0 0 1 34.112 32V288a31.68 31.68 0 0 1-21.6 29.856z"  horiz-adv-x="1024" />

    
    <glyph glyph-name="maiyizengyi" unicode="&#59570;" d="M220.544 701.386667c22.72 62.4 98.858667 88.885333 168.618667 63.498666L790.848 618.666667 821.333333 618.666667c64.8 0 117.333333-52.533333 117.333334-117.333334v-117.333333a32 32 0 0 0-32-32 64 64 0 1 1 0-128 32 32 0 0 0 32-32v-117.333333c0-64.8-52.533333-117.333333-117.333334-117.333334H202.666667c-64.8 0-117.333333 52.533333-117.333334 117.333334V192a32 32 0 0 0 32 32 64 64 0 1 1 0 128 32 32 0 0 0-32 32V501.333333c0 60.586667 45.92 110.453333 104.853334 116.682667zM821.333333 554.666667h-41.226666l-0.064-0.16-0.469334 0.170666L202.666667 554.666667a53.333333 53.333333 0 0 1-53.333334-53.333334v-89.365333c55.210667-14.208 96-64.32 96-123.968s-40.789333-109.76-96-123.968V74.666667a53.333333 53.333333 0 0 1 53.333334-53.333334h618.666666a53.333333 53.333333 0 0 1 53.333334 53.333334v89.365333c-55.210667 14.208-96 64.32-96 123.968s40.789333 109.76 96 123.968V501.333333a53.333333 53.333333 0 0 1-53.333334 53.333334zM640.042667 249.28a32 32 0 0 0 0-64h-256a32 32 0 0 0 0 64z m0 149.333333a32 32 0 0 0 0-64h-256a32 32 0 0 0 0 64z m-272.778667 306.133334c-38.933333 14.165333-77.056 0.917333-86.581333-25.248l-22.144-60.821334H603.733333z"  horiz-adv-x="1024" />

    
    <glyph glyph-name="rili" unicode="&#59572;" d="M725.333333 725.333333h74.709334C864.853333 725.333333 917.333333 672.810667 917.333333 607.904V96.106667C917.333333 31.242667 864.832-21.333333 800.042667-21.333333H223.957333C159.146667-21.333333 106.666667 31.189333 106.666667 96.096V607.893333C106.666667 672.757333 159.168 725.333333 223.957333 725.333333H298.666667v32a32 32 0 0 0 64 0v-32h298.666666v32a32 32 0 0 0 64 0v-32z m0-64v-32a32 32 0 0 0-64 0v32H362.666667v-32a32 32 0 0 0-64 0v32h-74.709334A53.354667 53.354667 0 0 1 170.666667 607.904V96.106667A53.301333 53.301333 0 0 1 223.957333 42.666667h576.085334A53.354667 53.354667 0 0 1 853.333333 96.096V607.893333A53.301333 53.301333 0 0 1 800.042667 661.333333H725.333333z m-10.666666-224a32 32 0 0 0 0-64H309.333333a32 32 0 0 0 0 64h405.333334zM586.666667 277.333333a32 32 0 0 0 0-64H309.333333a32 32 0 0 0 0 64h277.333334z"  horiz-adv-x="1024" />

    
    <glyph glyph-name="shangquan" unicode="&#59574;" d="M149.333333 21.333333V693.333333c0 64.8 52.533333 117.333333 117.333334 117.333334h277.333333c64.8 0 117.333333-52.533333 117.333333-117.333334v-65.866666l149.952-77.653334A117.333333 117.333333 0 0 0 874.666667 445.621333V21.333333h32a32 32 0 0 0 0-64H117.333333a32 32 0 0 0 0 64h32z m512 0h149.333334V445.621333a53.333333 53.333333 0 0 1-28.8 47.36L661.333333 555.392V21.333333z m-448 0h384V693.333333a53.333333 53.333333 0 0 1-53.333333 53.333334H266.666667a53.333333 53.333333 0 0 1-53.333334-53.333334v-672z"  horiz-adv-x="1024" />

    
    <glyph glyph-name="tuipiao" unicode="&#59578;" d="M485.333333 330.666667v42.666666H405.333333a32 32 0 1 0 0 64h47.232l-71.818666 86.186667a32 32 0 1 0 49.173333 40.96L512 465.994667l82.08 98.506666a32 32 0 1 0 49.173333-40.981333L571.434667 437.333333H618.666667a32 32 0 1 0 0-64h-69.333334v-42.666666H618.666667a32 32 0 1 0 0-64h-69.333334v-42.666667a32 32 0 0 0-64 0v42.666667H405.333333a32 32 0 1 0 0 64h80z m337.162667 92.181333l52.053333-29.290667C869.461333 589.44 709.098667 746.666667 512 746.666667c-200.298667 0-362.666667-162.368-362.666667-362.666667s162.368-362.666667 362.666667-362.666667c122.538667 0 234.645333 61.194667 301.578667 161.152a32 32 0 1 0 53.173333-35.616C788.064 29.365333 656.117333-42.666667 512-42.666667 276.362667-42.666667 85.333333 148.362667 85.333333 384S276.362667 810.666667 512 810.666667s426.666667-191.029333 426.666667-426.666667c0-10.954667-0.853333-26.357333-2.517334-46.528-1.930667-23.242667-27.274667-36.682667-47.594666-25.248l-97.450667 54.848a32 32 0 1 0 31.392 55.786667z"  horiz-adv-x="1024" />

    
    <glyph glyph-name="wenjuan" unicode="&#59579;" d="M895.946667 161.952l1.066666-1.013333a29.824 29.824 0 0 0 0-43.413334l-162.261333-152.96a31.925333 31.925333 0 0 0-22.762667-8.704 31.925333 31.925333 0 0 0-22.773333 8.704l-93.184 87.84a29.824 29.824 0 0 0 0 43.413334l1.077333 1.013333a32 32 0 0 0 43.904 0l70.976-66.901333 140.053334 132.021333a32 32 0 0 0 43.904 0zM768 810.666667c64.8 0 117.333333-52.533333 117.333333-117.333334v-394.666666a32 32 0 0 0-64 0V693.333333a53.333333 53.333333 0 0 1-53.333333 53.333334H256a53.333333 53.333333 0 0 1-53.333333-53.333334v-618.666666a53.333333 53.333333 0 0 1 53.333333-53.333334h234.666667a32 32 0 0 0 0-64H256c-64.8 0-117.333333 52.533333-117.333333 117.333334V693.333333c0 64.8 52.533333 117.333333 117.333333 117.333334zM554.666667 352a32 32 0 0 0 0-64H341.333333a32 32 0 0 0 0 64z m128 170.666667a32 32 0 0 0 0-64H341.333333a32 32 0 0 0 0 64z"  horiz-adv-x="1024" />

    
    <glyph glyph-name="wodeguanzhu" unicode="&#59580;" d="M512 810.666667c129.6 0 234.666667-105.066667 234.666667-234.666667 0-84.256-44.394667-158.133333-111.072-199.52a425.28 425.28 0 0 0 152.853333-83.466667 32 32 0 1 0-41.493333-48.736A361.045333 361.045333 0 0 1 512 330.666667c-188.672 0-345.429333-144.672-361.344-331.413334a32 32 0 0 0-63.765333 5.429334c15.114667 177.322667 138.048 322.346667 301.546666 371.786666C321.76 417.834667 277.333333 491.733333 277.333333 576c0 129.6 105.066667 234.666667 234.666667 234.666667z m415.946667-627.381334l1.066666-1.013333a29.824 29.824 0 0 0 0-43.413333l-162.261333-152.96a31.925333 31.925333 0 0 0-22.762667-8.704 31.925333 31.925333 0 0 0-22.773333 8.704l-93.184 87.84a29.824 29.824 0 0 0 0 43.413333l1.077333 1.013333a32 32 0 0 0 43.904 0l70.976-66.901333 140.053334 132.021333a32 32 0 0 0 43.904 0zM512 746.666667c-94.261333 0-170.666667-76.405333-170.666667-170.666667s76.405333-170.666667 170.666667-170.666667 170.666667 76.405333 170.666667 170.666667-76.405333 170.666667-170.666667 170.666667z"  horiz-adv-x="1024" />

    
    <glyph glyph-name="youhuiquan" unicode="&#59584;" d="M821.333333 757.333333c64.8 0 117.333333-52.533333 117.333334-117.333333v-149.333333a32 32 0 0 0-32-32 74.666667 74.666667 0 0 1 0-149.333334 32 32 0 0 0 32-32v-149.333333c0-64.8-52.533333-117.333333-117.333334-117.333333H202.666667c-64.8 0-117.333333 52.533333-117.333334 117.333333V277.333333a32 32 0 0 0 32 32 74.666667 74.666667 0 0 1 0 149.333334 32 32 0 0 0-32 32V640c0 64.8 52.533333 117.333333 117.333334 117.333333h618.666666z m0-64H202.666667a53.333333 53.333333 0 0 1-53.333334-53.333333v-121.045333C210.485333 504.512 256 449.568 256 384c0-65.568-45.514667-120.512-106.666667-134.954667V128a53.333333 53.333333 0 0 1 53.333334-53.333333h618.666666a53.333333 53.333333 0 0 1 53.333334 53.333333V249.045333C813.514667 263.488 768 318.432 768 384c0 65.568 45.514667 120.512 106.666667 134.954667V640a53.333333 53.333333 0 0 1-53.333334 53.333333zM384.853333 568.586667a32 32 0 0 0 45.066667-4.096L512 465.984l82.08 98.506667a32 32 0 1 0 49.173333-40.981334L571.413333 437.333333H618.666667a32 32 0 0 0 31.946666-30.122666L650.666667 405.333333a32 32 0 0 0-32-32h-69.333334v-42.666666H618.666667a32 32 0 0 0 31.946666-30.122667L650.666667 298.666667a32 32 0 0 0-32-32h-69.333334v-42.666667a32 32 0 0 0-30.122666-31.946667L517.333333 192a32 32 0 0 0-32 32v42.666667H405.333333a32 32 0 0 0-31.946666 30.122666L373.333333 298.666667a32 32 0 0 0 32 32h80v42.666666H405.333333a32 32 0 0 0-31.946666 30.122667L373.333333 405.333333a32 32 0 0 0 32 32h47.232l-71.818666 86.186667a32 32 0 0 0 2.581333 43.722667z"  horiz-adv-x="1024" />

    
    <glyph glyph-name="feeds" unicode="&#59217;" d="M640 725.333333a64 64 0 0 0 64-64v-490.666666h-64V661.333333H213.333333v-554.666666h597.333334V533.333333h-64v64h64a64 64 0 0 0 64-64v-426.666666a64 64 0 0 0-64-64H213.333333a64 64 0 0 0-64 64V661.333333a64 64 0 0 0 64 64h426.666667z m-192-320v-64h-170.666667v64h170.666667z m128 128v-64H277.333333v64h298.666667z"  horiz-adv-x="1024" />

    
    <glyph glyph-name="inspection" unicode="&#59220;" d="M733.482667 725.333333a64 64 0 0 0 57.237333-35.370666l55.850667-111.68A64 64 0 0 0 853.333333 549.653333V341.333333h-64v170.666667H234.666667v-405.333333h320v-64H234.666667a64 64 0 0 0-64 64V544.448a64 64 0 0 0 6.378666 27.84l56.469334 116.906667A64 64 0 0 0 291.136 725.333333h442.346667zM699.733333 298.666667a102.4 102.4 0 0 0 88.490667-153.962667l61.44-61.44-36.202667-36.202667-61.269333 61.248A102.4 102.4 0 1 0 699.733333 298.666667z m0-64a38.4 38.4 0 1 1 0-76.8 38.4 38.4 0 0 1 0 76.8zM469.333333 448v-64h-170.666666v64h170.666666z m-178.197333 213.333333l-41.237333-85.333333h526.272l-42.688 85.333333H291.136z"  horiz-adv-x="1024" />

    
    <glyph glyph-name="remind" unicode="&#59231;" d="M576 136.810667a64 64 0 0 0-127.893333-3.754667L448 136.810667h128zM512 725.333333c108.586667 0 200.234667-72.725333 200.234667-168.106666v-202.837334l65.877333-118.784c25.706667-29.738667 4.394667-75.669333-35.072-75.669333H280.96c-39.466667 0-60.778667 45.930667-35.072 75.669333l65.877333 118.784v202.858667C311.765333 652.586667 403.413333 725.333333 512 725.333333z m0-64c-77.44 0-136.234667-48.512-136.234667-104.106666v-219.392l-63.168-113.92h398.805334l-63.168 113.92V557.226667C648.234667 612.821333 589.418667 661.333333 512 661.333333z"  horiz-adv-x="1024" />

    
    <glyph glyph-name="RFQ-logo" unicode="&#59234;" d="M512 746.666667c74.88 0 144.448-22.698667 202.24-61.568l-46.378667-46.293334A297.28 297.28 0 0 1 512 682.666667c-164.949333 0-298.666667-133.717333-298.666667-298.666667s133.717333-298.666667 298.666667-298.666667 298.666667 133.717333 298.666667 298.666667c0 45.674667-10.24 88.96-28.586667 127.68l47.573333 47.466667A361.024 361.024 0 0 0 874.666667 384c0-200.298667-162.368-362.666667-362.666667-362.666667S149.333333 183.701333 149.333333 384 311.701333 746.666667 512 746.666667z m0-128c39.296 0 76.330667-9.664 108.864-26.730667l-48.362667-48.298667a170.666667 170.666667 0 1 1 108.16-133.205333l52.437334 52.373333C741.888 438.165333 746.666667 411.648 746.666667 384c0-129.6-105.066667-234.666667-234.666667-234.666667s-234.666667 105.066667-234.666667 234.666667 105.066667 234.666667 234.666667 234.666667z m318.762667 107.989333l45.226666-45.312-312.469333-311.936 0.085333-0.085333-47.68-2.368 2.346667 47.68L830.741333 726.677333z"  horiz-adv-x="1024" />

    
    <glyph glyph-name="task-management" unicode="&#59240;" d="M512 652.288c164.949333 0 298.666667-133.717333 298.666667-298.666667s-133.717333-298.666667-298.666667-298.666666-298.666667 133.717333-298.666667 298.666666 133.717333 298.666667 298.666667 298.666667z m0-64c-129.6 0-234.666667-105.066667-234.666667-234.666667s105.066667-234.666667 234.666667-234.666666 234.666667 105.066667 234.666667 234.666666-105.066667 234.666667-234.666667 234.666667z m27.477333-59.157333v-126.378667l69.824 69.824 45.226667-45.269333-124.416-124.437334c-20.16-20.16-54.634667-5.888-54.634667 22.613334v203.648h64zM620.586667 756.693333v-67.882666H394.346667V756.693333H620.586667z"  horiz-adv-x="1024" />

    
    <glyph glyph-name="viewgallery" unicode="&#59244;" d="M426.666667 725.333333a64 64 0 0 0 64-64v-554.666666a64 64 0 0 0-64-64h-192a64 64 0 0 0-64 64V661.333333a64 64 0 0 0 64 64h192z m362.666666-362.666666a64 64 0 0 0 64-64v-192a64 64 0 0 0-64-64h-192a64 64 0 0 0-64 64v192a64 64 0 0 0 64 64h192zM426.666667 661.333333h-192v-554.666666h192V661.333333z m362.666666-362.666666h-192v-192h192v192z m0 426.666666a64 64 0 0 0 64-64v-192a64 64 0 0 0-64-64h-192a64 64 0 0 0-64 64v192a64 64 0 0 0 64 64h192z m0-64h-192v-192h192v192z"  horiz-adv-x="1024" />

    
    <glyph glyph-name="copy" unicode="&#58986;" d="M853.333333 672h-53.333333V725.333333c0 40.533333-34.133333 74.666667-74.666667 74.666667H170.666667C130.133333 800 96 765.866667 96 725.333333v-554.666666c0-40.533333 34.133333-74.666667 74.666667-74.666667h53.333333V42.666667c0-40.533333 34.133333-74.666667 74.666667-74.666667h554.666666c40.533333 0 74.666667 34.133333 74.666667 74.666667V597.333333c0 40.533333-34.133333 74.666667-74.666667 74.666667zM160 170.666667V725.333333c0 6.4 4.266667 10.666667 10.666667 10.666667h554.666666c6.4 0 10.666667-4.266667 10.666667-10.666667v-554.666666c0-6.4-4.266667-10.666667-10.666667-10.666667H170.666667c-6.4 0-10.666667 4.266667-10.666667 10.666667z m704-128c0-6.4-4.266667-10.666667-10.666667-10.666667H298.666667c-6.4 0-10.666667 4.266667-10.666667 10.666667v53.333333H725.333333c40.533333 0 74.666667 34.133333 74.666667 74.666667V608H853.333333c6.4 0 10.666667-4.266667 10.666667-10.666667v-554.666666zM576 480h-96V576c0 17.066667-14.933333 32-32 32s-32-14.933333-32-32v-96H320c-17.066667 0-32-14.933333-32-32s14.933333-32 32-32h96V320c0-17.066667 14.933333-32 32-32s32 14.933333 32 32v96H576c17.066667 0 32 14.933333 32 32s-14.933333 32-32 32z"  horiz-adv-x="1024" />

    
    <glyph glyph-name="modular" unicode="&#59004;" d="M405.333333 437.333333H149.333333c-29.866667 0-53.333333 23.466667-53.333333 53.333334V746.666667c0 29.866667 23.466667 53.333333 53.333333 53.333333h256c29.866667 0 53.333333-23.466667 53.333334-53.333333v-256c0-29.866667-23.466667-53.333333-53.333334-53.333334z m-245.333333 64h234.666667v234.666667h-234.666667v-234.666667zM874.666667 437.333333H618.666667c-29.866667 0-53.333333 23.466667-53.333334 53.333334V746.666667c0 29.866667 23.466667 53.333333 53.333334 53.333333h256c29.866667 0 53.333333-23.466667 53.333333-53.333333v-256c0-29.866667-23.466667-53.333333-53.333333-53.333334z m-245.333334 64h234.666667v234.666667h-234.666667v-234.666667zM874.666667-32H618.666667c-29.866667 0-53.333333 23.466667-53.333334 53.333333V277.333333c0 29.866667 23.466667 53.333333 53.333334 53.333334h256c29.866667 0 53.333333-23.466667 53.333333-53.333334v-256c0-29.866667-23.466667-53.333333-53.333333-53.333333z m-245.333334 64h234.666667v234.666667h-234.666667v-234.666667zM405.333333-32H149.333333c-29.866667 0-53.333333 23.466667-53.333333 53.333333V277.333333c0 29.866667 23.466667 53.333333 53.333333 53.333334h256c29.866667 0 53.333333-23.466667 53.333334-53.333334v-256c0-29.866667-23.466667-53.333333-53.333334-53.333333z m-245.333333 64h234.666667v234.666667h-234.666667v-234.666667z"  horiz-adv-x="1024" />

    
    <glyph glyph-name="comments" unicode="&#59017;" d="M371.2 441.6m-51.2 0a0.8 0.8 0 1 0 102.4 0 0.8 0.8 0 1 0-102.4 0ZM512 441.6m-51.2 0a0.8 0.8 0 1 0 102.4 0 0.8 0.8 0 1 0-102.4 0ZM652.8 441.6m-51.2 0a0.8 0.8 0 1 0 102.4 0 0.8 0.8 0 1 0-102.4 0ZM377.6 0c-6.4 0-6.4 0-12.8 0-12.8 6.4-19.2 19.2-19.2 32l0 128C211.2 211.2 128 326.4 128 448c0 179.2 172.8 320 384 320s384-140.8 384-320c0-172.8-166.4-313.6-371.2-320l-128-121.6C390.4 0 384 0 377.6 0zM512 704C332.8 704 192 588.8 192 448c0-102.4 76.8-192 192-236.8 12.8-6.4 19.2-19.2 19.2-32l0-76.8 83.2 76.8C492.8 192 505.6 192 512 192c179.2 0 320 115.2 320 256S691.2 704 512 704z"  horiz-adv-x="1024" />

    
    <glyph glyph-name="social" unicode="&#59026;" d="M652.8 531.2c57.6-38.4 96-102.4 102.4-179.2 19.2 0 38.4-6.4 57.6-12.8-6.4 102.4-57.6 192-140.8 243.2C665.6 569.6 665.6 550.4 652.8 531.2zM614.4 108.8c-32-12.8-64-25.6-102.4-25.6-38.4 0-70.4 6.4-102.4 25.6C396.8 89.6 384 76.8 371.2 64c44.8-25.6 89.6-38.4 140.8-38.4 51.2 0 102.4 12.8 140.8 38.4C640 76.8 627.2 89.6 614.4 108.8zM268.8 352c6.4 76.8 44.8 140.8 102.4 179.2C364.8 550.4 358.4 569.6 352 588.8 268.8 537.6 217.6 441.6 211.2 339.2 230.4 345.6 249.6 352 268.8 352zM275.2 256c38.4 0 64-25.6 64-64s-25.6-64-64-64-64 25.6-64 64S236.8 256 275.2 256M275.2 320c-70.4 0-128-57.6-128-128s57.6-128 128-128 128 57.6 128 128S345.6 320 275.2 320L275.2 320zM512 672c38.4 0 64-25.6 64-64s-25.6-64-64-64-64 25.6-64 64S480 672 512 672M512 736c-70.4 0-128-57.6-128-128s57.6-128 128-128 128 57.6 128 128S582.4 736 512 736L512 736zM748.8 256c38.4 0 64-25.6 64-64s-25.6-64-64-64-64 25.6-64 64S716.8 256 748.8 256M748.8 320c-70.4 0-128-57.6-128-128s57.6-128 128-128 128 57.6 128 128S819.2 320 748.8 320L748.8 320zM275.2 256c38.4 0 64-25.6 64-64s-25.6-64-64-64-64 25.6-64 64S236.8 256 275.2 256M275.2 320c-70.4 0-128-57.6-128-128s57.6-128 128-128 128 57.6 128 128S345.6 320 275.2 320L275.2 320z"  horiz-adv-x="1024" />

    
    <glyph glyph-name="plane" unicode="&#59061;" d="M704 32c-6.4 0-12.8 0-19.2 6.4l-153.6 102.4L454.4 64c-6.4-6.4-25.6-12.8-32-6.4-12.8 6.4-19.2 19.2-19.2 32l0 140.8c0 6.4 0 12.8 6.4 19.2L652.8 512c12.8 12.8 32 12.8 44.8 0 12.8-12.8 12.8-32 0-44.8l-236.8-256 0-51.2 44.8 38.4c12.8 12.8 25.6 12.8 38.4 6.4l140.8-89.6 108.8 531.2L256 384l121.6-76.8C390.4 300.8 396.8 275.2 384 262.4c-6.4-12.8-32-19.2-44.8-12.8L172.8 358.4C166.4 364.8 160 371.2 160 384c0 12.8 6.4 19.2 19.2 25.6l640 320c12.8 6.4 25.6 6.4 32 0 12.8-6.4 12.8-19.2 12.8-32l-128-640c0-12.8-6.4-19.2-19.2-25.6C710.4 32 710.4 32 704 32z"  horiz-adv-x="1024" />

    
    <glyph glyph-name="share" unicode="&#59367;" d="M752 232c-28.5 0-54.8-10-75.4-26.7L469.4 355.2c1.7 9.3 2.6 19 2.6 28.8s-0.9 19.4-2.6 28.8l207.2 149.9C697.2 546 723.5 536 752 536c66.2 0 120 53.8 120 120s-53.8 120-120 120-120-53.8-120-120c0-11.6 1.6-22.7 4.7-33.3L439.9 480.2C410.7 518.9 364.3 544 312 544c-88.4 0-160-71.6-160-160s71.6-160 160-160c52.3 0 98.7 25.1 127.9 63.8l196.8-142.5c-3.1-10.6-4.7-21.8-4.7-33.3 0-66.2 53.8-120 120-120s120 53.8 120 120-53.8 120-120 120z m0 476c28.7 0 52-23.3 52-52s-23.3-52-52-52-52 23.3-52 52 23.3 52 52 52zM312 296c-48.5 0-88 39.5-88 88s39.5 88 88 88 88-39.5 88-88-39.5-88-88-88z m440-236c-28.7 0-52 23.3-52 52s23.3 52 52 52 52-23.3 52-52-23.3-52-52-52z"  horiz-adv-x="1024" />

    
    <glyph glyph-name="password" unicode="&#59227;" d="M512.704 789.333333a181.333333 181.333333 0 0 0 181.333333-181.333333l-0.021333-53.333333H789.333333a64 64 0 0 0 64-64v-384a64 64 0 0 0-64-64H234.666667a64 64 0 0 0-64 64V490.666667a64 64 0 0 0 64 64h96.682666v53.333333a181.333333 181.333333 0 0 0 181.333334 181.333333zM789.333333 490.666667H234.666667v-384h554.666666V490.666667z m-239.210666-106.666667v-170.666667h-64v170.666667h64zM512.704 725.333333a117.333333 117.333333 0 0 1-117.333333-117.333333V554.666667h234.666666v53.333333a117.333333 117.333333 0 0 1-117.333333 117.333333z"  horiz-adv-x="1024" />

    
    <glyph glyph-name="invoice" unicode="&#59250;" d="M810.666667 725.333333a64 64 0 0 0 64-64v-149.333333a64 64 0 0 0-64-64h-42.666667v-341.333333a64 64 0 0 0-64-64H320a64 64 0 0 0-64 64V448h-42.666667a64 64 0 0 0-64 64v149.333333a64 64 0 0 0 64 64h597.333334zM320 106.666667h384V554.666667H320v-448z m320 106.666666v-64H384v64h256z m170.666667 448H213.333333v-149.333333h42.666667v106.666667h512v-106.666667h42.666667v149.333333z"  horiz-adv-x="1024" />

    
    <glyph glyph-name="icon-test" unicode="&#58936;" d="M544 672h-64v-288c0-8.832 3.584-16.832 9.376-22.656l192-191.968 45.248 45.248L544 397.248V672zM512 0C300.256 0 128 172.256 128 384S300.256 768 512 768s384-172.256 384-384-172.256-384-384-384m0 832C264.576 832 64 631.424 64 384s200.576-448 448-448 448 200.576 448 448S759.424 832 512 832"  horiz-adv-x="1024" />

    
    <glyph glyph-name="icon-test1" unicode="&#58938;" d="M320 416h384v64H320zM320 288h256v64h-256zM320 160h256v64h-256zM832 736h-128V800H320v-64H192c-19.2 0-32-12.8-32-32v-704c0-19.2 12.8-32 32-32h640c19.2 0 32 12.8 32 32V704c0 19.2-12.8 32-32 32zM384 736h256v-64h-256V736z m416-704H224V672h96v-64h384V672h96v-640z"  horiz-adv-x="1024" />

    
    <glyph glyph-name="icon-test2" unicode="&#58939;" d="M384 128a64 64 0 1 1 0.032-128.032A64 64 0 0 1 384 128M704 128a64 64 0 1 1 0.032-128.032A64 64 0 0 1 704 128M312.672 384l-51.456 192h560.96l-51.456-192H312.672z m583.36 224a32 32 0 0 1-32 32H244.064L209.824 768H96v-64h64.672l145.728-544H800v64H355.52l-25.664 96H819.84l12.16 45.376 64 238.88-0.768 0.192C895.424 605.664 896 606.72 896 608z"  horiz-adv-x="1024" />

    
    <glyph glyph-name="icon-test3" unicode="&#58950;" d="M768 64a64 64 0 1 0 0.032 128.032A64 64 0 0 0 768 64m-448 64a64 64 0 1 0-128.032 0.032A64 64 0 0 0 320 128m128 512a64 64 0 1 0 128.032-0.032A64 64 0 0 0 448 640m352-388.544V416h-256v100.544c55.072 14.304 96 64 96 123.456 0 70.592-57.44 128-128 128-70.592 0-128-57.408-128-128 0-59.456 40.928-109.152 96-123.456V416H224V251.456c-55.072-14.304-96-64-96-123.456 0-70.592 57.408-128 128-128 70.56 0 128 57.408 128 128 0 59.456-40.928 109.152-96 123.456V352h448v-100.544c-55.072-14.304-96-64-96-123.456 0-70.592 57.408-128 128-128 70.56 0 128 57.408 128 128 0 59.456-40.928 109.152-96 123.456"  horiz-adv-x="1024" />

    
    <glyph glyph-name="icon-test4" unicode="&#58952;" d="M640 608a64 64 0 1 0 0.032 128.032A64 64 0 0 0 640 608z m123.456 96c-14.304 55.04-64 96-123.456 96s-109.152-40.96-123.456-96H128v-64h388.544c14.304-55.04 64-96 123.456-96s109.152 40.96 123.456 96H896V704h-132.544zM640 32a64 64 0 1 0 0.032 128.032A64 64 0 0 0 640 32m0 192c-59.456 0-109.152-40.96-123.456-96H128v-64h388.544c14.304-55.04 64-96 123.456-96s109.152 40.96 123.456 96H896v64h-132.544c-14.304 55.04-64 96-123.456 96M384 320a64 64 0 1 0 0.032 128.032A64 64 0 0 0 384 320m0 192c-59.456 0-109.152-40.96-123.456-96H128v-64h132.544c14.304-55.04 64-96 123.456-96s109.152 40.96 123.456 96H896v64H507.456c-14.304 55.04-64 96-123.456 96"  horiz-adv-x="1024" />

    
    <glyph glyph-name="icon-test5" unicode="&#58954;" d="M832 269.408l-128 128-128-128-256.48 256.448L192 398.368V704.128h640V269.44z m0-205.28H192V307.84l127.52 127.52L576 178.88l128 128 128-128v-114.72z m0 704H128v-768h768v768h-64zM672 576.128c-17.632 0-32-14.368-32-32 0-17.6 14.368-32 32-32 17.632 0 32 14.4 32 32 0 17.632-14.368 32-32 32m0-128c-52.928 0-96 43.072-96 96s43.072 96 96 96 96-43.072 96-96-43.072-96-96-96"  horiz-adv-x="1024" />

    
    <glyph glyph-name="file-common" unicode="&#58996;" d="M832 821.333333H192c-17.066667 0-32-14.933333-32-32v-765.866666c0-12.8 4.266667-23.466667 12.8-34.133334 8.533333-10.666667 21.333333-17.066667 36.266667-19.2h6.4c12.8 0 23.466667 4.266667 34.133333 12.8l264.533333 213.333334 264.533334-213.333334c8.533333-8.533333 21.333333-12.8 34.133333-12.8 29.866667 0 53.333333 23.466667 53.333333 53.333334V789.333333c-2.133333 17.066667-17.066667 32-34.133333 32z m-32-776.533333L531.2 262.4c-10.666667 8.533333-27.733333 8.533333-40.533333 0L224 44.8V757.333333h576v-712.533333zM341.333333 554.666667h320c17.066667 0 32 14.933333 32 32S678.4 618.666667 661.333333 618.666667H341.333333c-17.066667 0-32-14.933333-32-32S324.266667 554.666667 341.333333 554.666667zM341.333333 384h213.333334c17.066667 0 32 14.933333 32 32S571.733333 448 554.666667 448H341.333333c-17.066667 0-32-14.933333-32-32S324.266667 384 341.333333 384z"  horiz-adv-x="1024" />

    
    <glyph glyph-name="filter" unicode="&#58997;" d="M872.533333 761.6c-12.8 10.666667-29.866667 17.066667-49.066666 17.066667H198.4C157.866667 778.666667 123.733333 744.533333 123.733333 704c0-17.066667 6.4-34.133333 17.066667-49.066667l256-302.933333v-251.733333c0-12.8 6.4-23.466667 17.066667-27.733334l162.133333-81.066666c4.266667-2.133333 8.533333-4.266667 14.933333-4.266667 6.4 0 10.666667 2.133333 17.066667 4.266667 8.533333 6.4 14.933333 17.066667 14.933333 27.733333V354.133333l256 302.933334c12.8 14.933333 19.2 34.133333 17.066667 53.333333 2.133333 19.2-6.4 38.4-23.466667 51.2z m-38.4-64L569.6 386.133333c-4.266667-6.4-8.533333-12.8-8.533333-21.333333v-292.266667l-98.133334 49.066667V364.8c0 8.533333-2.133333 14.933333-8.533333 21.333333L189.866667 697.6c0 2.133333-2.133333 4.266667-2.133334 6.4 0 6.4 4.266667 10.666667 10.666667 10.666667h625.066667c2.133333 0 4.266667 0 6.4-2.133334 2.133333-2.133333 4.266667-6.4 4.266666-6.4 2.133333-2.133333 2.133333-6.4 0-8.533333z"  horiz-adv-x="1024" />

    
    <glyph glyph-name="history" unicode="&#59000;" d="M411.733333 10.666667H192c-6.4 0-10.666667 4.266667-10.666667 10.666666V746.666667c0 6.4 4.266667 10.666667 10.666667 10.666666h576c6.4 0 10.666667-4.266667 10.666667-10.666666v-219.733334c0-17.066667 14.933333-32 32-32s32 14.933333 32 32V746.666667c0 40.533333-34.133333 74.666667-74.666667 74.666666H192C151.466667 821.333333 117.333333 787.2 117.333333 746.666667v-725.333334c0-40.533333 34.133333-74.666667 74.666667-74.666666h219.733333c17.066667 0 32 14.933333 32 32s-14.933333 32-32 32zM704 437.333333c-134.4 0-245.333333-110.933333-245.333333-245.333333S569.6-53.333333 704-53.333333 949.333333 57.6 949.333333 192 838.4 437.333333 704 437.333333z m0-426.666666c-100.266667 0-181.333333 81.066667-181.333333 181.333333s81.066667 181.333333 181.333333 181.333333 181.333333-81.066667 181.333333-181.333333-81.066667-181.333333-181.333333-181.333333zM802.133333 179.2l-66.133333 29.866667V298.666667c0 17.066667-14.933333 32-32 32s-32-14.933333-32-32v-110.933334c0-12.8 8.533333-23.466667 19.2-29.866666l85.333333-38.4c4.266667-2.133333 8.533333-2.133333 12.8-2.133334 12.8 0 23.466667 6.4 29.866667 19.2 6.4 17.066667 0 34.133333-17.066667 42.666667zM693.333333 597.333333c0 17.066667-14.933333 32-32 32H298.666667c-17.066667 0-32-14.933333-32-32s14.933333-32 32-32h362.666666c17.066667 0 32 14.933333 32 32zM298.666667 458.666667c-17.066667 0-32-14.933333-32-32s14.933333-32 32-32h106.666666c17.066667 0 32 14.933333 32 32s-14.933333 32-32 32h-106.666666z"  horiz-adv-x="1024" />

    
    <glyph glyph-name="file-open" unicode="&#59001;" d="M921.6 445.866667c-6.4 8.533333-14.933333 12.8-25.6 12.8h-10.666667V554.666667c0 40.533333-34.133333 74.666667-74.666666 74.666666H514.133333c-4.266667 0-6.4 2.133333-8.533333 4.266667l-38.4 66.133333c-12.8 21.333333-38.4 36.266667-64 36.266667H170.666667c-40.533333 0-74.666667-34.133333-74.666667-74.666667v-597.333333c0-6.4 2.133333-12.8 6.4-19.2 6.4-8.533333 14.933333-12.8 25.6-12.8h640c12.8 0 25.6 8.533333 29.866667 21.333333l128 362.666667c4.266667 10.666667 2.133333 21.333333-4.266667 29.866667zM170.666667 672h232.533333c4.266667 0 6.4-2.133333 8.533333-4.266667l38.4-66.133333c12.8-21.333333 38.4-36.266667 64-36.266667H810.666667c6.4 0 10.666667-4.266667 10.666666-10.666666v-96H256c-12.8 0-25.6-8.533333-29.866667-21.333334l-66.133333-185.6V661.333333c0 6.4 4.266667 10.666667 10.666667 10.666667z m573.866666-576H172.8l104.533333 298.666667h571.733334l-104.533334-298.666667z"  horiz-adv-x="1024" />

    
    <glyph glyph-name="import" unicode="&#59003;" d="M667.733333 32H170.666667c-6.4 0-10.666667 4.266667-10.666667 10.666667V725.333333c0 6.4 4.266667 10.666667 10.666667 10.666667h309.333333V576c0-40.533333 34.133333-74.666667 74.666667-74.666667h160v-38.4c0-17.066667 14.933333-32 32-32s32 14.933333 32 32V597.333333c0 8.533333-4.266667 17.066667-8.533334 23.466667l-170.666666 170.666667c-6.4 6.4-14.933333 8.533333-23.466667 8.533333H170.666667C130.133333 800 96 765.866667 96 725.333333v-682.666666c0-40.533333 34.133333-74.666667 74.666667-74.666667h497.066666c17.066667 0 32 14.933333 32 32s-14.933333 32-32 32z m46.933334 550.4v-17.066667H554.666667c-6.4 0-10.666667 4.266667-10.666667 10.666667V736h19.2l151.466667-153.6zM853.333333 298.666667H599.466667l51.2 51.2c12.8 12.8 12.8 32 0 44.8-12.8 12.8-32 12.8-44.8 0l-106.666667-106.666667c-12.8-12.8-12.8-32 0-44.8l106.666667-106.666667c6.4-6.4 14.933333-8.533333 23.466666-8.533333s17.066667 2.133333 23.466667 8.533333c12.8 12.8 12.8 32 0 44.8L599.466667 234.666667H853.333333c17.066667 0 32 14.933333 32 32S870.4 298.666667 853.333333 298.666667z"  horiz-adv-x="1024" />

    
    <glyph glyph-name="security" unicode="&#59005;" d="M814.933333 716.8L529.066667 817.066667c-10.666667 4.266667-23.466667 4.266667-34.133334 0L209.066667 716.8c-29.866667-10.666667-49.066667-38.4-49.066667-70.4V298.666667c0-194.133333 157.866667-352 352-352S864 104.533333 864 298.666667V646.4c0 32-19.2 61.866667-49.066667 70.4zM800 298.666667c0-157.866667-130.133333-288-288-288S224 140.8 224 298.666667V646.4c0 4.266667 2.133333 8.533333 6.4 10.666667L512 755.2l281.6-98.133333c4.266667-2.133333 6.4-6.4 6.4-10.666667V298.666667zM659.2 492.8l-192-194.133333-85.333333 68.266666c-12.8 10.666667-34.133333 8.533333-44.8-4.266666-10.666667-12.8-8.533333-34.133333 4.266666-44.8l106.666667-85.333334c6.4-4.266667 12.8-6.4 19.2-6.4 8.533333 0 17.066667 2.133333 23.466667 8.533334l213.333333 213.333333c12.8 12.8 12.8 32 0 44.8-10.666667 10.666667-32 10.666667-44.8 0z"  horiz-adv-x="1024" />

    
    <glyph glyph-name="survey" unicode="&#59007;" d="M810.666667 757.333333h-85.333334V768c0 29.866667-23.466667 53.333333-53.333333 53.333333h-320C322.133333 821.333333 298.666667 797.866667 298.666667 768v-10.666667h-85.333334c-40.533333 0-74.666667-34.133333-74.666666-74.666666v-661.333334c0-40.533333 34.133333-74.666667 74.666666-74.666666h597.333334c40.533333 0 74.666667 34.133333 74.666666 74.666666V682.666667c0 40.533333-34.133333 74.666667-74.666666 74.666666z m-149.333334 0v-64H362.666667v64h298.666666zM821.333333 21.333333c0-6.4-4.266667-10.666667-10.666666-10.666666H213.333333c-6.4 0-10.666667 4.266667-10.666666 10.666666V682.666667c0 6.4 4.266667 10.666667 10.666666 10.666666h85.333334v-10.666666c0-29.866667 23.466667-53.333333 53.333333-53.333334h320c29.866667 0 53.333333 23.466667 53.333333 53.333334v10.666666h85.333334c6.4 0 10.666667-4.266667 10.666666-10.666666v-661.333334zM659.2 450.133333l-211.2-213.333333-83.2 83.2c-12.8 12.8-32 12.8-44.8 0s-12.8-32 0-44.8l106.666667-106.666667c6.4-6.4 14.933333-8.533333 23.466666-8.533333s17.066667 2.133333 23.466667 8.533333l234.666667 234.666667c12.8 12.8 12.8 32 0 44.8-14.933333 12.8-36.266667 12.8-49.066667 2.133333z"  horiz-adv-x="1024" />

    
    <glyph glyph-name="selected" unicode="&#58991;" d="M512 853.333333c259.2 0 469.333333-210.133333 469.333333-469.333333s-210.133333-469.333333-469.333333-469.333333S42.666667 124.8 42.666667 384 252.8 853.333333 512 853.333333z m0-64C288.149333 789.333333 106.666667 607.850667 106.666667 384s181.482667-405.333333 405.333333-405.333333 405.333333 181.482667 405.333333 405.333333S735.850667 789.333333 512 789.333333z m236.714667-256a8.533333 8.533333 0 0 0 6.037333-14.570666L495.616 259.626667c-5.461333-5.461333-12.416-8.533333-19.562667-9.237334l-3.050666-0.149333c-8.192 0-16.384 3.136-22.634667 9.386667l-152.448 152.469333a8.533333 8.533333 0 0 0 6.037333 14.570667h66.346667a8.533333 8.533333 0 0 0 6.016-2.496l96.661333-96.64 203.349334 203.306666a8.533333 8.533333 0 0 0 6.037333 2.496h66.346667z"  horiz-adv-x="1024" />

    
    <glyph glyph-name="coin" unicode="&#58993;" d="M512 832c247.424 0 448-200.576 448-448s-200.576-448-448-448S64 136.576 64 384 264.576 832 512 832z m0-64C299.925333 768 128 596.074667 128 384s171.925333-384 384-384 384 171.925333 384 384S724.074667 768 512 768z m104.32-165.717333l33.173333-33.194667a8.533333 8.533333 0 0 0 0-12.053333L561.770667 469.333333H674.133333c4.693333 0 8.533333-3.84 8.533334-8.533333v-46.933333a8.533333 8.533333 0 0 0-8.533334-8.533334H554.666667v-42.666666h119.466666c4.693333 0 8.533333-3.84 8.533334-8.533334v-46.933333a8.533333 8.533333 0 0 0-8.533334-8.533333H554.666667v-119.466667a8.533333 8.533333 0 0 0-8.533334-8.533333h-46.933333a8.533333 8.533333 0 0 0-8.533333 8.533333V298.666667h-119.466667a8.533333 8.533333 0 0 0-8.533333 8.533333v46.933333c0 4.693333 3.84 8.533333 8.533333 8.533334H490.666667v42.666666h-119.466667a8.533333 8.533333 0 0 0-8.533333 8.533334v46.933333c0 4.693333 3.84 8.533333 8.533333 8.533333h106.538667l-87.701334 87.68a8.533333 8.533333 0 0 0 0 12.074667l33.173334 33.194667a8.533333 8.533333 0 0 0 12.074666 0l84.48-84.48 84.48 84.48a8.533333 8.533333 0 0 0 12.053334 0z"  horiz-adv-x="1024" />

    
    <glyph glyph-name="piechart_1" unicode="&#58998;" d="M512 853.333333c259.2 0 469.333333-210.133333 469.333333-469.333333s-210.133333-469.333333-469.333333-469.333333S42.666667 124.8 42.666667 384 252.8 853.333333 512 853.333333zM106.666667 384c0-223.850667 181.482667-405.333333 405.333333-405.333333 100.416 0 192.298667 36.522667 263.104 96.981333L491.2 359.552a74.666667 74.666667 0 0 0-21.717333 48.234667L469.333333 412.330667V787.114667C265.514667 765.781333 106.666667 593.450667 106.666667 384z m810.112-21.333333H578.581333l241.770667-241.770667A403.584 403.584 0 0 1 916.778667 362.666667zM533.333333 788.778667V426.666667h381.802667C894.528 623.488 733.034667 778.453333 533.333333 788.757333z"  horiz-adv-x="1024" />

    
    <glyph glyph-name="piechart_2" unicode="&#58999;" d="M503.338667 853.226667a8.533333 8.533333 0 0 0 8.469333-6.698667l0.192-1.856V477.866667a93.866667 93.866667 0 0 1 93.866667-93.866667h366.805333c4.714667 0 8.533333-3.84 8.533333-8.533333v-0.149334c-0.106667-5.674667-0.213333-10.176-0.384-13.504C969.237333 112.896 763.776-85.333333 512-85.333333 252.8-85.333333 42.666667 124.8 42.666667 384 42.666667 635.626667 240.682667 841.002667 489.386667 852.8l12.096 0.384 1.856 0.042667zM441.6 776.746667l-6.144-1.130667C251.434667 739.882667 113.066667 577.749333 113.066667 384c0-220.330667 178.602667-398.933333 398.933333-398.933333 193.984 0 355.626667 138.453333 391.509333 321.92l1.216 6.613333H605.866667a164.266667 164.266667 0 0 0-164.181334 159.061333L441.6 477.866667V776.746667z m149.333333 69.76h0.725334l9.130666-1.621334c2.56-0.469333 4.821333-0.896 6.826667-1.301333l2.858667-0.597333c182.229333-38.912 325.269333-183.594667 361.792-366.698667l2.154666-11.925333a8.533333 8.533333 0 0 0-6.954666-9.834667l-1.450667-0.128H629.333333a46.933333 46.933333 0 0 0-46.805333 43.584l-0.128 3.370667V837.973333a8.533333 8.533333 0 0 0 8.533333 8.533334z m62.144-93.802667a4.266667 4.266667 0 0 1-0.298666-1.557333v-222.058667c0-2.346667 1.92-4.266667 4.266666-4.266667h222.08a4.266667 4.266667 0 0 1 3.968 5.824A400.512 400.512 0 0 1 658.602667 755.114667a4.266667 4.266667 0 0 1-5.546667-2.410667z"  horiz-adv-x="1024" />

    
    <glyph glyph-name="network" unicode="&#59002;" d="M522.666667 853.333333c3.776 0 7.530667-0.170667 11.242666-0.490666C782.954667 841.386667 981.333333 635.861333 981.333333 384c0-251.861333-198.4-457.386667-447.424-468.821333-3.712-0.341333-7.466667-0.512-11.242666-0.512l-3.285334 0.064C516.906667-85.333333 514.474667-85.333333 512-85.333333 252.8-85.333333 42.666667 124.8 42.666667 384S252.8 853.333333 512 853.333333l7.658667-0.042666L522.666667 853.333333zM490.666667 362.666667h-149.056c4.842667-191.082667 74.069333-342.08 149.056-376.576V362.666667z m213.056 0H554.666667v-376.576c74.986667 34.517333 144.213333 185.514667 149.056 376.554666z m-426.133334 0H107.221333c8.746667-168.853333 120.853333-310.4 274.261334-362.517334-60.16 81.109333-100.394667 212.650667-103.893334 362.496z m639.189334 0h-149.034667c-3.349333-143.104-40.170667-269.504-95.872-351.253334C810.048 70.784 908.586667 204.778667 916.778667 362.666667zM381.482667 767.872c-146.986667-50.069333-255.936-181.909333-272.597334-341.226667h169.450667c6.634667 140.970667 45.866667 263.978667 103.146667 341.226667zM342.4 426.666667H490.666667V781.909333C418.496 748.714667 351.637333 607.573333 342.4 426.666667zM554.666667 781.909333L554.666667 426.666667h148.266666C693.674667 607.552 626.837333 748.693333 554.666667 781.909333z m117.184-25.322666l1.834666-2.730667c51.904-77.674667 87.04-194.474667 93.290667-327.189333h148.117333c-15.530667 148.565333-111.317333 273.237333-243.242666 329.92z"  horiz-adv-x="1024" />

    
    <glyph glyph-name="pay" unicode="&#59020;" d="M832 832a128 128 0 0 0 128-128v-640a128 128 0 0 0-128-128H192a128 128 0 0 0-128 128V704a128 128 0 0 0 128 128h640z m0-64H192a64 64 0 0 1-63.893333-60.245333L128 704v-640a64 64 0 0 1 60.245333-63.893333L192 0h640a64 64 0 0 1 63.893333 60.245333L896 64V704a64 64 0 0 1-60.245333 63.893333L832 768zM311.466667 554.666667c4.693333 0 8.533333-3.84 8.533333-8.533334v-324.266666a8.533333 8.533333 0 0 0-8.533333-8.533334h-46.933334a8.533333 8.533333 0 0 0-8.533333 8.533334V546.133333c0 4.693333 3.84 8.533333 8.533333 8.533334h46.933334z m149.333333 0c4.693333 0 8.533333-3.84 8.533333-8.533334v-324.266666a8.533333 8.533333 0 0 0-8.533333-8.533334h-46.933333a8.533333 8.533333 0 0 0-8.533334 8.533334V546.133333c0 4.693333 3.84 8.533333 8.533334 8.533334h46.933333z m149.333333 0c4.693333 0 8.533333-3.84 8.533334-8.533334v-324.266666a8.533333 8.533333 0 0 0-8.533334-8.533334h-46.933333a8.533333 8.533333 0 0 0-8.533333 8.533334V546.133333c0 4.693333 3.84 8.533333 8.533333 8.533334h46.933333z m149.333334 0c4.693333 0 8.533333-3.84 8.533333-8.533334v-324.266666a8.533333 8.533333 0 0 0-8.533333-8.533334h-46.933334a8.533333 8.533333 0 0 0-8.533333 8.533334V546.133333c0 4.693333 3.84 8.533333 8.533333 8.533334h46.933334z"  horiz-adv-x="1024" />

    
    <glyph glyph-name="card" unicode="&#59022;" d="M832 832a128 128 0 0 0 128-128v-640a128 128 0 0 0-128-128H192a128 128 0 0 0-128 128V704a128 128 0 0 0 128 128h640zM501.333333 192a160.064 160.064 0 0 0-150.890666 106.666667H128v-234.666667a64 64 0 0 1 60.245333-63.893333L192 0h640a64 64 0 0 1 63.893333 60.245333L896 64V298.666667H652.224a160.064 160.064 0 0 0-150.890667-106.666667z m-95.424 170.666667a96 96 0 1 1 190.826667 0H896v170.666666H128v-170.666666h277.909333zM832 768H192a64 64 0 0 1-63.893333-60.245333L128 704v-106.666667h768V704a64 64 0 0 1-60.245333 63.893333L832 768z"  horiz-adv-x="1024" />

    
    <glyph glyph-name="collect" unicode="&#59023;" d="M789.333333 832a128 128 0 0 0 128-128v-607.488l32.64 7.744 1.493334 0.149333a8.533333 8.533333 0 0 0 8.362666-6.826666l0.170667-1.706667v-46.464a8.533333 8.533333 0 0 0-4.992-7.765333l-1.557333-0.533334-439.466667-104.64a8.533333 8.533333 0 0 0-3.968 0l-439.466667 104.64A8.533333 8.533333 0 0 0 64 49.408v46.464a8.533333 8.533333 0 0 0 10.517333 8.298667L106.666667 96.512V704a128 128 0 0 0 128 128h554.666666z m0-64H234.666667a64 64 0 0 1-63.893334-60.245333L170.666667 704v-622.72l339.349333-80.810667a8.533333 8.533333 0 0 1 3.968 0L853.333333 81.28V704a64 64 0 0 1-60.245333 63.893333L789.333333 768z m-157.930666-131.456l33.173333-33.173333a8.533333 8.533333 0 0 0 0-12.074667L561.792 488.533333H695.466667c4.693333 0 8.533333-3.84 8.533333-8.533333v-46.933333a8.533333 8.533333 0 0 0-8.533333-8.533334H554.666667v-42.666666h140.8c4.693333 0 8.533333-3.84 8.533333-8.533334v-46.933333a8.533333 8.533333 0 0 0-8.533333-8.533333H554.666667v-162.133334a8.533333 8.533333 0 0 0-8.533334-8.533333h-46.933333a8.533333 8.533333 0 0 0-8.533333 8.533333v162.133334h-140.8a8.533333 8.533333 0 0 0-8.533334 8.533333v46.933333c0 4.693333 3.84 8.533333 8.533334 8.533334H490.666667v42.666666h-140.8a8.533333 8.533333 0 0 0-8.533334 8.533334v46.933333c0 4.693333 3.84 8.533333 8.533334 8.533333h127.829333l-102.741333 102.762667a8.533333 8.533333 0 0 0 0 12.074667l33.173333 33.173333a8.533333 8.533333 0 0 0 12.074667 0l99.562666-99.541333 99.562667 99.541333a8.533333 8.533333 0 0 0 12.074667 0z"  horiz-adv-x="1024" />

    
    <glyph glyph-name="pay_collect" unicode="&#59025;" d="M72.533333 542.592a8.533333 8.533333 0 0 0 6.037334-2.496l132.266666-132.266667a8.533333 8.533333 0 0 0 2.496-6.037333v-61.184a8.533333 8.533333 0 0 0-14.570666-6.037333L128 405.333333v-333.333333a72 72 0 0 1 67.776-71.893333l4.224-0.106667h624a72 72 0 0 1 71.893333 67.776l0.106667 4.224v99.413333a8.533333 8.533333 0 0 0 14.570667 6.016l46.933333-46.933333a8.533333 8.533333 0 0 0 2.496-6.037333v-46.976A141.482667 141.482667 0 0 0 818.517333-64H205.482667A141.482667 141.482667 0 0 0 64 77.482667V534.058667c0 4.714667 3.84 8.533333 8.533333 8.533333z m540.437334 98.389333l33.173333-33.194666a8.533333 8.533333 0 0 0 0-12.074667L541.077333 490.666667H674.133333c4.693333 0 8.533333-3.84 8.533334-8.533334v-46.933333a8.533333 8.533333 0 0 0-8.533334-8.533333H533.333333v-42.666667h140.8c4.693333 0 8.533333-3.84 8.533334-8.533333v-46.933334a8.533333 8.533333 0 0 0-8.533334-8.533333H533.333333v-162.133333a8.533333 8.533333 0 0 0-8.533333-8.533334h-46.933333a8.533333 8.533333 0 0 0-8.533334 8.533334V320h-140.8a8.533333 8.533333 0 0 0-8.533333 8.533333v46.933334c0 4.693333 3.84 8.533333 8.533333 8.533333H469.333333v42.666667h-140.8a8.533333 8.533333 0 0 0-8.533333 8.533333v46.933333c0 4.693333 3.84 8.533333 8.533333 8.533334h133.034667l-105.045333 105.045333a8.533333 8.533333 0 0 0 0 12.074667l33.173333 33.194666a8.533333 8.533333 0 0 0 12.074667 0l99.562666-99.562666 99.562667 99.562666a8.533333 8.533333 0 0 0 12.074667 0zM818.517333 832A141.482667 141.482667 0 0 0 960 690.517333v-456.576a8.533333 8.533333 0 0 0-14.570667-6.037333l-132.266666 132.266667a8.533333 8.533333 0 0 0-2.496 6.037333v61.184a8.533333 8.533333 0 0 0 14.570666 6.037333L896 362.666667V696a72 72 0 0 1-67.776 71.893333L824 768H200a72 72 0 0 1-71.893333-67.776L128 696v-99.413333a8.533333 8.533333 0 0 0-14.570667-6.016l-46.933333 46.933333A8.533333 8.533333 0 0 0 64 643.541333V690.517333A141.482667 141.482667 0 0 0 205.482667 832h613.034666z"  horiz-adv-x="1024" />

    
    </font>
</defs>
</svg>
